<svg width="307" height="353" viewBox="0 0 307 353" fill="none" xmlns="http://www.w3.org/2000/svg">
<g filter="url(#filter0_d)">
<ellipse cx="158.5" cy="155" rx="144.5" ry="145" fill="#32023A"/>
<path d="M301.5 155C301.5 234.258 237.472 298.5 158.5 298.5C79.5282 298.5 15.5 234.258 15.5 155C15.5 75.7422 79.5282 11.5 158.5 11.5C237.472 11.5 301.5 75.7422 301.5 155Z" stroke="#060A3A" stroke-width="3"/>
</g>
<path d="M77.3671 285.859C77.0828 282.933 77.4149 280.271 78.3634 277.872C79.3397 275.47 80.8678 273.535 82.9476 272.067C85.0247 270.571 87.5542 269.679 90.5362 269.389C93.1001 269.14 95.4327 269.405 97.534 270.186C99.6605 270.936 101.436 272.128 102.861 273.762C104.313 275.393 105.362 277.359 106.008 279.659L96.2258 280.609C95.6851 279.677 94.9711 278.987 94.0836 278.539C93.2212 278.06 92.2605 277.872 91.2015 277.975C89.6409 278.126 88.4576 278.832 87.6516 280.092C86.8735 281.349 86.5806 282.967 86.7728 284.946C86.9651 286.924 87.5639 288.456 88.5694 289.539C89.6028 290.621 90.8998 291.085 92.4605 290.934C93.5195 290.831 94.4274 290.475 95.1842 289.867C95.9661 289.229 96.5326 288.4 96.8837 287.381L106.666 286.431C106.475 288.813 105.824 290.944 104.713 292.824C103.629 294.701 102.118 296.227 100.178 297.4C98.2634 298.542 96.0242 299.238 93.4603 299.487C90.4783 299.777 87.8256 299.402 85.5021 298.361C83.1759 297.293 81.3027 295.675 79.8823 293.506C78.4898 291.334 77.6514 288.786 77.3671 285.859ZM135.625 265.304L138.501 294.9L129.221 295.802L128.1 284.264L119.279 285.121L120.4 296.659L111.12 297.56L108.244 267.964L117.525 267.062L118.56 277.722L127.381 276.865L126.345 266.205L135.625 265.304ZM161.22 288.178L151.355 289.136L150.326 293.752L140.586 294.698L148.538 264.049L159.239 263.01L172.9 291.558L163.118 292.509L161.22 288.178ZM158.285 281.416L154.809 273.441L152.934 281.936L158.285 281.416ZM189.89 289.908L183.299 279.83L183.257 279.834L184.289 290.452L175.008 291.354L172.133 261.757L185.928 260.417C188.325 260.184 190.415 260.417 192.199 261.116C193.98 261.787 195.361 262.82 196.34 264.216C197.345 265.581 197.937 267.183 198.115 269.023C198.308 271.001 197.921 272.811 196.955 274.452C196.017 276.091 194.549 277.344 192.552 278.214L200.09 288.917L189.89 289.908ZM182.656 273.647L186.335 273.29C187.227 273.203 187.876 272.943 188.284 272.51C188.69 272.048 188.85 271.386 188.767 270.522C188.691 269.741 188.394 269.151 187.877 268.751C187.388 268.349 186.711 268.189 185.847 268.273L182.169 268.631L182.656 273.647ZM209.418 258.135L212.294 287.731L203.013 288.633L200.138 259.036L209.418 258.135ZM236.852 255.469L237.567 262.827L229.708 263.59L231.869 285.83L222.588 286.731L220.428 264.492L212.652 265.247L211.938 257.89L236.852 255.469ZM267.795 252.463L259.18 274.104L260.053 283.091L250.772 283.993L249.899 275.005L237.279 255.428L247.897 254.396L253.64 264.43L257.345 253.479L267.795 252.463ZM144.225 331.518L134.945 332.42L123.675 318.493L125.121 333.374L115.841 334.276L112.965 304.679L122.246 303.778L133.539 317.956L132.069 302.823L141.35 301.922L144.225 331.518ZM166.962 324.794L157.096 325.753L156.068 330.368L146.328 331.314L154.279 300.666L164.981 299.626L178.641 328.175L168.859 329.125L166.962 324.794ZM164.026 318.033L160.551 310.057L158.675 318.552L164.026 318.033ZM213.449 294.917L216.324 324.514L207.086 325.411L205.652 310.655L202.529 325.854L194.587 326.626L188.597 312.312L190.03 327.068L180.75 327.97L177.874 298.373L189.245 297.269L197.492 314.401L202.12 296.018L213.449 294.917ZM227.636 301.008L227.989 304.645L237.186 303.751L237.864 310.733L228.667 311.626L229.073 315.806L239.524 314.791L240.243 322.19L220.512 324.107L217.636 294.51L237.368 292.594L238.086 299.993L227.636 301.008Z" fill="#32023A"/>
<path d="M78.3634 277.872L72.8051 275.612C72.7979 275.63 72.7907 275.648 72.7837 275.666L78.3634 277.872ZM82.9476 272.067L86.4075 276.969C86.4231 276.958 86.4385 276.947 86.454 276.936L82.9476 272.067ZM97.534 270.186L95.445 275.81C95.4761 275.822 95.5073 275.833 95.5386 275.844L97.534 270.186ZM102.861 273.762L98.3385 277.705C98.3522 277.72 98.366 277.736 98.3798 277.752L102.861 273.762ZM106.008 279.659L106.588 285.631C108.355 285.459 109.956 284.513 110.959 283.048C111.962 281.582 112.264 279.748 111.785 278.038L106.008 279.659ZM96.2258 280.609L91.0357 283.62C92.214 285.651 94.4688 286.808 96.806 286.581L96.2258 280.609ZM94.0836 278.539L91.1707 283.784C91.2392 283.822 91.3085 283.859 91.3784 283.894L94.0836 278.539ZM87.6516 280.092L82.5974 276.859C82.5813 276.884 82.5654 276.909 82.5498 276.934L87.6516 280.092ZM88.5694 289.539L84.1708 293.62C84.1911 293.642 84.2115 293.664 84.2321 293.685L88.5694 289.539ZM95.1842 289.867L98.9422 294.545C98.9547 294.535 98.9671 294.525 98.9795 294.514L95.1842 289.867ZM96.8837 287.381L96.3036 281.409C93.9664 281.637 91.9764 283.206 91.2112 285.426L96.8837 287.381ZM106.666 286.431L112.647 286.91C112.788 285.139 112.138 283.397 110.872 282.152C109.606 280.907 107.853 280.287 106.085 280.459L106.666 286.431ZM104.713 292.824L99.5475 289.771C99.5369 289.789 99.5264 289.807 99.5159 289.825L104.713 292.824ZM100.178 297.4L103.253 302.552C103.263 302.546 103.273 302.54 103.283 302.534L100.178 297.4ZM85.5021 298.361L82.9985 303.814C83.0158 303.822 83.0331 303.83 83.0504 303.838L85.5021 298.361ZM79.8823 293.506L74.8315 296.745C74.8419 296.761 74.8524 296.777 74.8629 296.793L79.8823 293.506ZM83.339 285.279C83.1337 283.167 83.3904 281.476 83.9431 280.078L72.7837 275.666C71.4394 279.066 71.0319 282.7 71.3952 286.44L83.339 285.279ZM83.9216 280.131C84.4741 278.772 85.2836 277.762 86.4075 276.969L79.4877 267.165C76.452 269.308 74.2053 272.168 72.8051 275.612L83.9216 280.131ZM86.454 276.936C87.5334 276.159 89.0085 275.565 91.1164 275.361L89.956 263.417C86.0999 263.792 82.516 264.984 79.4412 267.198L86.454 276.936ZM91.1164 275.361C92.9108 275.186 94.3143 275.39 95.445 275.81L99.6231 264.561C96.5512 263.42 93.2894 263.093 89.956 263.417L91.1164 275.361ZM95.5386 275.844C96.7297 276.264 97.6219 276.883 98.3385 277.705L107.383 269.818C105.25 267.372 102.591 265.607 99.5295 264.527L95.5386 275.844ZM98.3798 277.752C99.1707 278.64 99.8083 279.774 100.231 281.28L111.785 278.038C110.916 274.943 109.456 272.146 107.342 269.771L98.3798 277.752ZM105.428 273.687L95.6456 274.637L96.806 286.581L106.588 285.631L105.428 273.687ZM101.416 277.599C100.343 275.749 98.8014 274.2 96.7887 273.183L91.3784 283.894C91.2851 283.847 91.1916 283.781 91.1149 283.707C91.041 283.635 91.0201 283.593 91.0357 283.62L101.416 277.599ZM96.9964 273.293C94.9856 272.177 92.7912 271.792 90.6213 272.003L91.7817 283.947C91.7827 283.946 91.7014 283.954 91.564 283.927C91.4227 283.899 91.2848 283.848 91.1707 283.784L96.9964 273.293ZM90.6213 272.003C87.3311 272.322 84.4499 273.963 82.5974 276.859L92.7059 283.325C92.6504 283.412 92.4926 283.606 92.2169 283.771C91.9495 283.93 91.7608 283.949 91.7817 283.947L90.6213 272.003ZM82.5498 276.934C80.8762 279.638 80.5251 282.687 80.8009 285.526L92.7447 284.365C92.6361 283.247 92.8708 283.06 92.7534 283.25L82.5498 276.934ZM80.8009 285.526C81.0768 288.365 82.0081 291.289 84.1708 293.62L92.9681 285.459C93.1198 285.622 92.8533 285.484 92.7447 284.365L80.8009 285.526ZM84.2321 293.685C86.6074 296.17 89.7504 297.225 93.0407 296.906L91.8803 284.962C91.8594 284.964 92.0481 284.945 92.3412 285.051C92.6435 285.159 92.8357 285.319 92.9068 285.394L84.2321 293.685ZM93.0407 296.906C95.1462 296.701 97.1878 295.954 98.9422 294.545L91.4261 285.19C91.5242 285.111 91.638 285.046 91.7482 285.003C91.8544 284.961 91.9088 284.959 91.8803 284.962L93.0407 296.906ZM98.9795 294.514C100.684 293.122 101.867 291.336 102.556 289.337L91.2112 285.426C91.1977 285.466 91.2016 285.44 91.2424 285.381C91.2847 285.319 91.3381 285.262 91.3888 285.22L98.9795 294.514ZM97.4639 293.353L107.246 292.403L106.085 280.459L96.3036 281.409L97.4639 293.353ZM100.685 285.952C100.56 287.512 100.153 288.747 99.5475 289.771L109.878 295.877C111.496 293.14 112.39 290.114 112.647 286.91L100.685 285.952ZM99.5159 289.825C98.9618 290.785 98.1874 291.592 97.0729 292.266L103.283 302.534C106.048 300.862 108.296 298.618 109.909 295.823L99.5159 289.825ZM97.1033 292.247C96.0593 292.87 94.6989 293.339 92.8801 293.515L94.0404 305.459C97.3495 305.138 100.468 304.214 103.253 302.552L97.1033 292.247ZM92.8801 293.515C90.7502 293.722 89.1709 293.43 87.9538 292.885L83.0504 303.838C86.4803 305.373 90.2064 305.831 94.0404 305.459L92.8801 293.515ZM88.0057 292.909C86.719 292.318 85.7122 291.456 84.9017 290.219L74.8629 296.793C76.8931 299.893 79.6329 302.269 82.9985 303.814L88.0057 292.909ZM84.933 290.267C84.1216 289.002 83.5442 287.392 83.339 285.279L71.3952 286.44C71.7585 290.179 72.8579 293.667 74.8315 296.745L84.933 290.267ZM135.625 265.304L141.597 264.724C141.277 261.425 138.344 259.011 135.045 259.332L135.625 265.304ZM138.501 294.9L139.081 300.872C142.379 300.552 144.793 297.618 144.473 294.32L138.501 294.9ZM129.221 295.802L123.249 296.382C123.569 299.68 126.503 302.094 129.801 301.774L129.221 295.802ZM128.1 284.264L134.072 283.684C133.751 280.386 130.818 277.972 127.519 278.292L128.1 284.264ZM119.279 285.121L118.699 279.149C115.401 279.47 112.987 282.403 113.307 285.701L119.279 285.121ZM120.4 296.659L120.98 302.631C124.278 302.31 126.692 299.377 126.372 296.079L120.4 296.659ZM111.12 297.56L105.148 298.141C105.468 301.439 108.402 303.853 111.7 303.532L111.12 297.56ZM108.244 267.964L107.664 261.992C104.366 262.312 101.952 265.246 102.273 268.544L108.244 267.964ZM117.525 267.062L123.497 266.482C123.176 263.184 120.243 260.77 116.945 261.09L117.525 267.062ZM118.56 277.722L112.588 278.302C112.909 281.6 115.842 284.014 119.141 283.694L118.56 277.722ZM127.381 276.865L127.961 282.837C131.259 282.517 133.673 279.583 133.353 276.285L127.381 276.865ZM126.345 266.205L125.765 260.233C122.467 260.554 120.053 263.487 120.373 266.785L126.345 266.205ZM129.654 265.884L132.529 295.481L144.473 294.32L141.597 264.724L129.654 265.884ZM137.921 288.928L128.64 289.83L129.801 301.774L139.081 300.872L137.921 288.928ZM135.192 295.222L134.072 283.684L122.128 284.844L123.249 296.382L135.192 295.222ZM127.519 278.292L118.699 279.149L119.859 291.093L128.68 290.236L127.519 278.292ZM113.307 285.701L114.428 297.239L126.372 296.079L125.251 284.541L113.307 285.701ZM119.82 290.687L110.54 291.589L111.7 303.532L120.98 302.631L119.82 290.687ZM117.092 296.98L114.216 267.384L102.273 268.544L105.148 298.141L117.092 296.98ZM108.825 273.936L118.105 273.034L116.945 261.09L107.664 261.992L108.825 273.936ZM111.553 267.642L112.588 278.302L124.532 277.142L123.497 266.482L111.553 267.642ZM119.141 283.694L127.961 282.837L126.801 270.893L117.98 271.75L119.141 283.694ZM133.353 276.285L132.317 265.625L120.373 266.785L121.409 277.445L133.353 276.285ZM126.925 272.177L136.206 271.276L135.045 259.332L125.765 260.233L126.925 272.177ZM161.22 288.178L166.716 285.77C165.674 283.393 163.223 281.955 160.64 282.206L161.22 288.178ZM151.355 289.136L150.775 283.165C148.192 283.415 146.063 285.298 145.498 287.831L151.355 289.136ZM150.326 293.752L150.906 299.723C153.489 299.472 155.618 297.59 156.183 295.057L150.326 293.752ZM140.586 294.698L134.778 293.191C134.286 295.088 134.751 297.105 136.024 298.595C137.296 300.084 139.216 300.859 141.166 300.67L140.586 294.698ZM148.538 264.049L147.958 258.077C145.451 258.321 143.363 260.104 142.73 262.542L148.538 264.049ZM159.239 263.01L164.652 260.42C163.563 258.145 161.169 256.794 158.659 257.038L159.239 263.01ZM172.9 291.558L173.48 297.53C175.429 297.341 177.163 296.213 178.125 294.507C179.088 292.802 179.157 290.735 178.312 288.969L172.9 291.558ZM163.118 292.509L157.622 294.917C158.664 297.294 161.115 298.732 163.698 298.481L163.118 292.509ZM158.285 281.416L158.865 287.388C160.777 287.202 162.484 286.113 163.457 284.457C164.43 282.801 164.552 280.78 163.785 279.019L158.285 281.416ZM154.809 273.441L160.31 271.044C159.271 268.661 156.816 267.218 154.229 267.469C151.642 267.72 149.511 269.609 148.95 272.147L154.809 273.441ZM152.934 281.936L147.075 280.643C146.661 282.518 147.17 284.478 148.444 285.916C149.718 287.353 151.603 288.094 153.514 287.908L152.934 281.936ZM160.64 282.206L150.775 283.165L151.935 295.108L161.801 294.15L160.64 282.206ZM145.498 287.831L144.47 292.446L156.183 295.057L157.211 290.442L145.498 287.831ZM149.746 287.78L140.006 288.726L141.166 300.67L150.906 299.723L149.746 287.78ZM146.394 296.205L154.345 265.556L142.73 262.542L134.778 293.191L146.394 296.205ZM149.118 270.021L159.82 268.981L158.659 257.038L147.958 258.077L149.118 270.021ZM153.827 265.599L167.488 294.148L178.312 288.969L164.652 260.42L153.827 265.599ZM172.32 285.587L162.538 286.537L163.698 298.481L173.48 297.53L172.32 285.587ZM168.614 290.101L166.716 285.77L155.725 290.586L157.622 294.917L168.614 290.101ZM163.785 279.019L160.31 271.044L149.309 275.838L152.784 283.813L163.785 279.019ZM148.95 272.147L147.075 280.643L158.793 283.229L160.668 274.734L148.95 272.147ZM153.514 287.908L158.865 287.388L157.705 275.444L152.354 275.964L153.514 287.908ZM189.89 289.908L184.869 293.192C186.091 295.06 188.249 296.096 190.471 295.88L189.89 289.908ZM183.299 279.83L188.32 276.546C187.098 274.678 184.941 273.642 182.719 273.858L183.299 279.83ZM183.257 279.834L182.677 273.862C179.379 274.183 176.965 277.116 177.285 280.414L183.257 279.834ZM184.289 290.452L184.869 296.424C188.167 296.103 190.581 293.17 190.261 289.872L184.289 290.452ZM175.008 291.354L169.037 291.934C169.357 295.232 172.29 297.646 175.589 297.325L175.008 291.354ZM172.133 261.757L171.553 255.785C168.255 256.105 165.841 259.039 166.161 262.337L172.133 261.757ZM192.199 261.116L190.011 266.702C190.035 266.712 190.06 266.721 190.084 266.731L192.199 261.116ZM196.34 264.216L191.429 267.662C191.455 267.699 191.481 267.736 191.508 267.772L196.34 264.216ZM196.955 274.452L191.784 271.409C191.772 271.43 191.76 271.45 191.748 271.471L196.955 274.452ZM192.552 278.214L190.158 272.712C188.504 273.432 187.262 274.857 186.775 276.594C186.288 278.33 186.608 280.194 187.647 281.669L192.552 278.214ZM200.09 288.917L200.671 294.889C202.797 294.682 204.653 293.361 205.544 291.419C206.435 289.477 206.226 287.208 204.996 285.462L200.09 288.917ZM182.656 273.647L176.684 274.227C177.005 277.525 179.938 279.939 183.236 279.619L182.656 273.647ZM188.284 272.51L192.654 276.622C192.701 276.572 192.747 276.521 192.792 276.469L188.284 272.51ZM187.877 268.751L184.065 273.384C184.111 273.423 184.159 273.461 184.207 273.498L187.877 268.751ZM182.169 268.631L181.589 262.659C178.29 262.979 175.876 265.913 176.197 269.211L182.169 268.631ZM194.912 286.624L188.32 276.546L178.278 283.114L184.869 293.192L194.912 286.624ZM182.719 273.858L182.677 273.862L183.837 285.806L183.879 285.802L182.719 273.858ZM177.285 280.414L178.317 291.032L190.261 289.872L189.229 279.254L177.285 280.414ZM183.709 284.48L174.428 285.382L175.589 297.325L184.869 296.424L183.709 284.48ZM180.98 290.773L178.105 261.177L166.161 262.337L169.037 291.934L180.98 290.773ZM172.713 267.729L186.508 266.389L185.348 254.445L171.553 255.785L172.713 267.729ZM186.508 266.389C188.201 266.224 189.303 266.425 190.011 266.702L194.387 255.529C191.527 254.408 188.449 254.144 185.348 254.445L186.508 266.389ZM190.084 266.731C190.873 267.028 191.222 267.367 191.429 267.662L201.252 260.769C199.5 258.273 197.088 256.545 194.314 255.501L190.084 266.731ZM191.508 267.772C191.814 268.188 192.06 268.74 192.143 269.603L204.087 268.442C203.814 265.627 202.876 262.974 201.173 260.659L191.508 267.772ZM192.143 269.603C192.219 270.379 192.077 270.911 191.784 271.409L202.126 277.496C203.764 274.711 204.396 271.624 204.087 268.442L192.143 269.603ZM191.748 271.471C191.547 271.822 191.16 272.276 190.158 272.712L194.946 283.715C197.939 282.413 200.487 280.36 202.162 277.433L191.748 271.471ZM187.647 281.669L195.185 292.372L204.996 285.462L197.458 274.759L187.647 281.669ZM199.51 282.945L189.31 283.936L190.471 295.88L200.671 294.889L199.51 282.945ZM183.236 279.619L186.915 279.262L185.755 267.318L182.076 267.675L183.236 279.619ZM186.915 279.262C188.546 279.103 190.852 278.536 192.654 276.622L183.915 268.397C184.901 267.35 185.907 267.303 185.755 267.318L186.915 279.262ZM192.792 276.469C194.681 274.319 194.915 271.759 194.738 269.941L182.795 271.102C182.786 271.012 182.698 269.778 183.777 268.55L192.792 276.469ZM194.738 269.941C194.537 267.869 193.631 265.616 191.548 264.005L184.207 273.498C183.748 273.143 183.376 272.686 183.126 272.187C182.886 271.71 182.815 271.313 182.795 271.102L194.738 269.941ZM191.69 264.118C189.574 262.377 187.115 262.122 185.267 262.301L186.428 274.245C186.307 274.257 185.202 274.32 184.065 273.384L191.69 264.118ZM185.267 262.301L181.589 262.659L182.749 274.603L186.428 274.245L185.267 262.301ZM176.197 269.211L176.684 274.227L188.628 273.067L188.141 268.051L176.197 269.211ZM209.418 258.135L215.39 257.554C215.07 254.256 212.136 251.842 208.838 252.163L209.418 258.135ZM212.294 287.731L212.874 293.703C216.172 293.383 218.586 290.449 218.265 287.151L212.294 287.731ZM203.013 288.633L197.041 289.213C197.362 292.511 200.295 294.925 203.593 294.605L203.013 288.633ZM200.138 259.036L199.558 253.064C196.26 253.385 193.846 256.318 194.166 259.616L200.138 259.036ZM203.446 258.715L206.322 288.311L218.265 287.151L215.39 257.554L203.446 258.715ZM211.713 281.759L202.433 282.661L203.593 294.605L212.874 293.703L211.713 281.759ZM208.985 288.053L206.11 258.456L194.166 259.616L197.041 289.213L208.985 288.053ZM200.718 265.008L209.998 264.107L208.838 252.163L199.558 253.064L200.718 265.008ZM236.852 255.469L242.824 254.889C242.504 251.591 239.57 249.177 236.272 249.497L236.852 255.469ZM237.567 262.827L238.147 268.799C241.445 268.478 243.859 265.545 243.539 262.247L237.567 262.827ZM229.708 263.59L229.128 257.618C225.83 257.939 223.416 260.872 223.736 264.17L229.708 263.59ZM231.869 285.83L232.449 291.801C235.747 291.481 238.161 288.548 237.84 285.249L231.869 285.83ZM222.588 286.731L216.616 287.311C216.937 290.609 219.87 293.023 223.168 292.703L222.588 286.731ZM220.428 264.492L226.4 263.912C226.079 260.613 223.146 258.2 219.848 258.52L220.428 264.492ZM212.652 265.247L206.68 265.827C207.001 269.126 209.934 271.54 213.232 271.219L212.652 265.247ZM211.938 257.89L211.357 251.918C208.059 252.238 205.645 255.172 205.966 258.47L211.938 257.89ZM230.88 256.05L231.595 263.407L243.539 262.247L242.824 254.889L230.88 256.05ZM236.987 256.855L229.128 257.618L230.288 269.562L238.147 268.799L236.987 256.855ZM223.736 264.17L225.897 286.41L237.84 285.249L235.68 263.01L223.736 264.17ZM231.288 279.858L222.008 280.759L223.168 292.703L232.449 291.801L231.288 279.858ZM228.56 286.151L226.4 263.912L214.456 265.072L216.616 287.311L228.56 286.151ZM219.848 258.52L212.072 259.275L213.232 271.219L221.008 270.464L219.848 258.52ZM218.624 264.667L217.909 257.31L205.966 258.47L206.68 265.827L218.624 264.667ZM212.518 263.862L237.432 261.441L236.272 249.497L211.357 251.918L212.518 263.862ZM267.795 252.463L273.37 254.683C274.144 252.739 273.849 250.532 272.592 248.859C271.335 247.186 269.298 246.289 267.215 246.491L267.795 252.463ZM259.18 274.104L253.605 271.884C253.252 272.773 253.115 273.732 253.208 274.684L259.18 274.104ZM260.053 283.091L260.633 289.063C263.931 288.743 266.345 285.809 266.025 282.511L260.053 283.091ZM250.772 283.993L244.801 284.573C245.121 287.871 248.054 290.285 251.353 289.965L250.772 283.993ZM249.899 275.005L255.871 274.425C255.779 273.474 255.46 272.558 254.942 271.754L249.899 275.005ZM237.279 255.428L236.699 249.456C234.616 249.658 232.79 250.931 231.878 252.814C230.967 254.698 231.102 256.92 232.236 258.679L237.279 255.428ZM247.897 254.396L253.104 251.416C251.932 249.367 249.667 248.196 247.317 248.424L247.897 254.396ZM253.64 264.43L248.433 267.411C249.606 269.459 251.871 270.63 254.22 270.402C256.57 270.174 258.567 268.589 259.324 266.353L253.64 264.43ZM257.345 253.479L256.764 247.507C254.415 247.735 252.417 249.32 251.661 251.556L257.345 253.479ZM262.221 250.244L253.605 271.884L264.754 276.323L273.37 254.683L262.221 250.244ZM253.208 274.684L254.081 283.672L266.025 282.511L265.151 273.524L253.208 274.684ZM259.473 277.12L250.192 278.021L251.353 289.965L260.633 289.063L259.473 277.12ZM256.744 283.413L255.871 274.425L243.927 275.585L244.801 284.573L256.744 283.413ZM254.942 271.754L242.322 252.177L232.236 258.679L244.856 278.256L254.942 271.754ZM237.859 261.4L248.477 260.368L247.317 248.424L236.699 249.456L237.859 261.4ZM242.69 257.377L248.433 267.411L258.848 261.449L253.104 251.416L242.69 257.377ZM259.324 266.353L263.028 255.401L251.661 251.556L247.957 262.508L259.324 266.353ZM257.925 259.45L268.376 258.435L267.215 246.491L256.764 247.507L257.925 259.45ZM144.225 331.518L144.805 337.49C148.103 337.17 150.517 334.236 150.197 330.938L144.225 331.518ZM134.945 332.42L130.28 336.194C131.548 337.761 133.518 338.587 135.525 338.392L134.945 332.42ZM123.675 318.493L128.339 314.718C126.673 312.659 123.853 311.936 121.402 312.94C118.95 313.943 117.447 316.436 117.703 319.073L123.675 318.493ZM125.121 333.374L125.701 339.346C128.999 339.026 131.413 336.092 131.093 332.794L125.121 333.374ZM115.841 334.276L109.869 334.856C110.189 338.154 113.123 340.568 116.421 340.248L115.841 334.276ZM112.965 304.679L112.385 298.708C109.087 299.028 106.673 301.961 106.993 305.26L112.965 304.679ZM122.246 303.778L126.939 300.039C125.673 298.45 123.688 297.609 121.665 297.806L122.246 303.778ZM133.539 317.956L128.846 321.694C130.502 323.773 133.328 324.515 135.791 323.518C138.255 322.52 139.768 320.021 139.511 317.376L133.539 317.956ZM132.069 302.823L131.489 296.852C128.191 297.172 125.777 300.105 126.097 303.404L132.069 302.823ZM141.35 301.922L147.321 301.342C147.001 298.043 144.068 295.629 140.769 295.95L141.35 301.922ZM143.645 325.547L134.364 326.448L135.525 338.392L144.805 337.49L143.645 325.547ZM139.609 328.646L128.339 314.718L119.011 322.267L130.28 336.194L139.609 328.646ZM117.703 319.073L119.149 333.955L131.093 332.794L129.647 317.912L117.703 319.073ZM124.541 327.403L115.26 328.304L116.421 340.248L125.701 339.346L124.541 327.403ZM121.812 333.696L118.937 304.099L106.993 305.26L109.869 334.856L121.812 333.696ZM113.545 310.651L122.826 309.75L121.665 297.806L112.385 298.708L113.545 310.651ZM117.552 307.516L128.846 321.694L138.233 314.218L126.939 300.039L117.552 307.516ZM139.511 317.376L138.041 302.243L126.097 303.404L127.568 318.536L139.511 317.376ZM132.649 308.795L141.93 307.894L140.769 295.95L131.489 296.852L132.649 308.795ZM135.378 302.502L138.253 332.099L150.197 330.938L147.321 301.342L135.378 302.502ZM166.962 324.794L172.457 322.386C171.416 320.009 168.964 318.572 166.382 318.822L166.962 324.794ZM157.096 325.753L156.516 319.781C153.933 320.032 151.804 321.915 151.24 324.448L157.096 325.753ZM156.068 330.368L156.648 336.34C159.231 336.089 161.359 334.206 161.924 331.673L156.068 330.368ZM146.328 331.314L140.52 329.807C140.028 331.704 140.493 333.721 141.765 335.211C143.038 336.701 144.958 337.476 146.908 337.286L146.328 331.314ZM154.279 300.666L153.699 294.694C151.192 294.937 149.104 296.721 148.471 299.159L154.279 300.666ZM164.981 299.626L170.393 297.036C169.305 294.762 166.91 293.41 164.401 293.654L164.981 299.626ZM178.641 328.175L179.222 334.147C181.17 333.957 182.904 332.829 183.867 331.124C184.829 329.419 184.899 327.351 184.054 325.585L178.641 328.175ZM168.859 329.125L163.364 331.533C164.405 333.91 166.857 335.348 169.44 335.097L168.859 329.125ZM164.026 318.033L164.606 324.004C166.518 323.819 168.225 322.729 169.198 321.073C170.172 319.418 170.294 317.396 169.527 315.636L164.026 318.033ZM160.551 310.057L166.051 307.66C165.013 305.277 162.558 303.834 159.971 304.085C157.383 304.337 155.252 306.226 154.692 308.764L160.551 310.057ZM158.675 318.552L152.816 317.259C152.402 319.134 152.911 321.095 154.185 322.532C155.459 323.969 157.344 324.71 159.256 324.524L158.675 318.552ZM166.382 318.822L156.516 319.781L157.676 331.725L167.542 330.766L166.382 318.822ZM151.24 324.448L150.211 329.063L161.924 331.673L162.953 327.058L151.24 324.448ZM155.487 324.396L145.747 325.342L146.908 337.286L156.648 336.34L155.487 324.396ZM152.135 332.821L160.087 302.172L148.471 299.159L140.52 329.807L152.135 332.821ZM154.859 306.638L165.561 305.598L164.401 293.654L153.699 294.694L154.859 306.638ZM159.568 302.216L173.229 330.765L184.054 325.585L170.393 297.036L159.568 302.216ZM178.061 322.203L168.279 323.153L169.44 335.097L179.222 334.147L178.061 322.203ZM174.355 326.717L172.457 322.386L161.466 327.202L163.364 331.533L174.355 326.717ZM169.527 315.636L166.051 307.66L155.05 312.454L158.526 320.43L169.527 315.636ZM154.692 308.764L152.816 317.259L164.534 319.846L166.41 311.351L154.692 308.764ZM159.256 324.524L164.606 324.004L163.446 312.061L158.095 312.581L159.256 324.524ZM213.449 294.917L219.421 294.337C219.1 291.039 216.167 288.625 212.869 288.945L213.449 294.917ZM216.324 324.514L216.905 330.486C220.203 330.165 222.617 327.232 222.296 323.934L216.324 324.514ZM207.086 325.411L201.114 325.992C201.434 329.29 204.368 331.704 207.666 331.383L207.086 325.411ZM205.652 310.655L211.624 310.075C211.337 307.121 208.933 304.82 205.969 304.663C203.006 304.506 200.372 306.54 199.775 309.447L205.652 310.655ZM202.529 325.854L203.109 331.826C205.729 331.571 207.877 329.64 208.407 327.062L202.529 325.854ZM194.587 326.626L189.052 328.942C190.068 331.37 192.547 332.852 195.167 332.598L194.587 326.626ZM188.597 312.312L194.131 309.996C192.986 307.258 190.01 305.769 187.132 306.493C184.254 307.218 182.338 309.938 182.625 312.892L188.597 312.312ZM190.03 327.068L190.61 333.04C193.908 332.72 196.322 329.786 196.002 326.488L190.03 327.068ZM180.75 327.97L174.778 328.55C175.098 331.848 178.032 334.262 181.33 333.942L180.75 327.97ZM177.874 298.373L177.294 292.401C173.996 292.722 171.582 295.655 171.903 298.954L177.874 298.373ZM189.245 297.269L194.651 294.666C193.56 292.399 191.169 291.053 188.665 291.297L189.245 297.269ZM197.492 314.401L192.086 317.004C193.181 319.28 195.585 320.626 198.097 320.371C200.61 320.116 202.694 318.315 203.311 315.866L197.492 314.401ZM202.12 296.018L201.54 290.046C199.017 290.291 196.921 292.095 196.302 294.553L202.12 296.018ZM207.477 295.497L210.352 325.094L222.296 323.934L219.421 294.337L207.477 295.497ZM215.744 318.542L206.506 319.44L207.666 331.383L216.905 330.486L215.744 318.542ZM213.058 324.831L211.624 310.075L199.68 311.235L201.114 325.992L213.058 324.831ZM199.775 309.447L196.652 324.647L208.407 327.062L211.529 311.862L199.775 309.447ZM201.949 319.882L194.007 320.654L195.167 332.598L203.109 331.826L201.949 319.882ZM200.122 324.309L194.131 309.996L183.062 314.628L189.052 328.942L200.122 324.309ZM182.625 312.892L184.058 327.649L196.002 326.488L194.568 311.732L182.625 312.892ZM189.45 321.097L180.17 321.998L181.33 333.942L190.61 333.04L189.45 321.097ZM186.722 327.39L183.846 297.793L171.903 298.954L174.778 328.55L186.722 327.39ZM178.455 304.345L189.825 303.241L188.665 291.297L177.294 292.401L178.455 304.345ZM183.839 299.871L192.086 317.004L202.898 311.799L194.651 294.666L183.839 299.871ZM203.311 315.866L207.939 297.483L196.302 294.553L191.674 312.937L203.311 315.866ZM202.7 301.99L214.029 300.889L212.869 288.945L201.54 290.046L202.7 301.99ZM227.636 301.008L227.055 295.036C223.757 295.357 221.343 298.29 221.664 301.588L227.636 301.008ZM227.989 304.645L222.017 305.225C222.337 308.523 225.271 310.937 228.569 310.617L227.989 304.645ZM237.186 303.751L243.158 303.171C242.837 299.873 239.904 297.459 236.605 297.779L237.186 303.751ZM237.864 310.733L238.444 316.704C241.742 316.384 244.156 313.451 243.836 310.152L237.864 310.733ZM228.667 311.626L228.087 305.654C224.789 305.975 222.375 308.908 222.695 312.206L228.667 311.626ZM229.073 315.806L223.101 316.386C223.422 319.685 226.355 322.099 229.653 321.778L229.073 315.806ZM239.524 314.791L245.496 314.211C245.176 310.913 242.242 308.499 238.944 308.819L239.524 314.791ZM240.243 322.19L240.823 328.162C244.121 327.842 246.535 324.908 246.215 321.61L240.243 322.19ZM220.512 324.107L214.54 324.687C214.86 327.985 217.794 330.399 221.092 330.079L220.512 324.107ZM217.636 294.51L217.056 288.539C213.758 288.859 211.344 291.792 211.665 295.091L217.636 294.51ZM237.368 292.594L243.339 292.013C243.019 288.715 240.086 286.301 236.787 286.622L237.368 292.594ZM238.086 299.993L238.667 305.965C241.965 305.644 244.379 302.711 244.058 299.412L238.086 299.993ZM221.664 301.588L222.017 305.225L233.961 304.065L233.608 300.428L221.664 301.588ZM228.569 310.617L237.766 309.723L236.605 297.779L227.409 298.673L228.569 310.617ZM231.214 304.332L231.892 311.313L243.836 310.152L243.158 303.171L231.214 304.332ZM237.284 304.761L228.087 305.654L229.247 317.598L238.444 316.704L237.284 304.761ZM222.695 312.206L223.101 316.386L235.045 315.226L234.639 311.046L222.695 312.206ZM229.653 321.778L240.104 320.763L238.944 308.819L228.493 309.834L229.653 321.778ZM233.552 315.371L234.271 322.77L246.215 321.61L245.496 314.211L233.552 315.371ZM239.663 316.218L219.932 318.135L221.092 330.079L240.823 328.162L239.663 316.218ZM226.484 323.527L223.608 293.93L211.665 295.091L214.54 324.687L226.484 323.527ZM218.217 300.482L237.948 298.565L236.787 286.622L217.056 288.539L218.217 300.482ZM231.396 293.174L232.115 300.573L244.058 299.412L243.339 292.013L231.396 293.174ZM237.506 294.021L227.055 295.036L228.216 306.98L238.667 305.965L237.506 294.021Z" fill="#060A3A"/>
<g filter="url(#filter1_d)">
<ellipse cx="148.5" cy="145" rx="144.5" ry="145" fill="white"/>
<path d="M291.5 145C291.5 224.258 227.472 288.5 148.5 288.5C69.5282 288.5 5.5 224.258 5.5 145C5.5 65.7422 69.5282 1.5 148.5 1.5C227.472 1.5 291.5 65.7422 291.5 145Z" stroke="#E5E5E5" stroke-width="3"/>
</g>
<path d="M67.3671 275.859C67.0828 272.933 67.4149 270.271 68.3634 267.872C69.3397 265.47 70.8678 263.535 72.9476 262.067C75.0247 260.571 77.5542 259.679 80.5362 259.389C83.1001 259.14 85.4327 259.405 87.534 260.186C89.6605 260.936 91.4361 262.128 92.8608 263.762C94.3133 265.393 95.3623 267.359 96.0078 269.659L86.2258 270.609C85.6851 269.677 84.9711 268.987 84.0836 268.539C83.2212 268.06 82.2605 267.872 81.2015 267.975C79.6409 268.126 78.4576 268.832 77.6516 270.092C76.8735 271.349 76.5806 272.967 76.7728 274.946C76.9651 276.924 77.5639 278.456 78.5694 279.539C79.6028 280.621 80.8998 281.085 82.4605 280.934C83.5195 280.831 84.4274 280.475 85.1842 279.867C85.9661 279.229 86.5326 278.4 86.8837 277.381L96.6657 276.431C96.4751 278.813 95.8241 280.944 94.7127 282.824C93.6292 284.701 92.1176 286.227 90.1779 287.4C88.2634 288.542 86.0242 289.238 83.4603 289.487C80.4783 289.777 77.8256 289.402 75.5021 288.361C73.1759 287.293 71.3027 285.675 69.8823 283.506C68.4898 281.334 67.6514 278.786 67.3671 275.859ZM125.625 255.304L128.501 284.9L119.221 285.802L118.1 274.264L109.279 275.121L110.4 286.659L101.12 287.56L98.2444 257.964L107.525 257.062L108.56 267.722L117.381 266.865L116.345 256.205L125.625 255.304ZM151.22 278.178L141.355 279.136L140.326 283.752L130.586 284.698L138.538 254.049L149.239 253.01L162.9 281.558L153.118 282.509L151.22 278.178ZM148.285 271.416L144.809 263.441L142.934 271.936L148.285 271.416ZM179.89 279.908L173.299 269.83L173.257 269.834L174.289 280.452L165.008 281.354L162.133 251.757L175.928 250.417C178.325 250.184 180.415 250.417 182.199 251.116C183.98 251.787 185.361 252.82 186.34 254.216C187.345 255.581 187.937 257.183 188.115 259.023C188.308 261.001 187.921 262.811 186.955 264.452C186.017 266.091 184.549 267.344 182.552 268.214L190.09 278.917L179.89 279.908ZM172.656 263.647L176.335 263.29C177.227 263.203 177.876 262.943 178.284 262.51C178.69 262.048 178.85 261.386 178.767 260.522C178.691 259.741 178.394 259.151 177.877 258.751C177.388 258.349 176.711 258.189 175.847 258.273L172.169 258.631L172.656 263.647ZM199.418 248.135L202.294 277.731L193.013 278.633L190.138 249.036L199.418 248.135ZM226.852 245.469L227.567 252.827L219.708 253.59L221.869 275.83L212.588 276.731L210.428 254.492L202.652 255.247L201.938 247.89L226.852 245.469ZM257.795 242.463L249.18 264.104L250.053 273.091L240.772 273.993L239.899 265.005L227.279 245.428L237.897 244.396L243.64 254.43L247.345 243.479L257.795 242.463ZM134.225 321.518L124.945 322.42L113.675 308.493L115.121 323.374L105.841 324.276L102.965 294.679L112.246 293.778L123.539 307.956L122.069 292.823L131.35 291.922L134.225 321.518ZM156.962 314.794L147.096 315.753L146.068 320.368L136.328 321.314L144.279 290.666L154.981 289.626L168.641 318.175L158.859 319.125L156.962 314.794ZM154.026 308.033L150.551 300.057L148.675 308.552L154.026 308.033ZM203.449 284.917L206.324 314.514L197.086 315.411L195.652 300.655L192.529 315.854L184.587 316.626L178.597 302.312L180.03 317.068L170.75 317.97L167.874 288.373L179.245 287.269L187.492 304.401L192.12 286.018L203.449 284.917ZM217.636 291.008L217.989 294.645L227.186 293.751L227.864 300.733L218.667 301.626L219.073 305.806L229.524 304.791L230.243 312.19L210.512 314.107L207.636 284.51L227.368 282.594L228.086 289.993L217.636 291.008Z" fill="white"/>
<path d="M68.3634 267.872L62.8051 265.612C62.7979 265.63 62.7907 265.648 62.7837 265.666L68.3634 267.872ZM72.9476 262.067L76.4075 266.969C76.4231 266.958 76.4385 266.947 76.454 266.936L72.9476 262.067ZM87.534 260.186L85.445 265.81C85.4761 265.822 85.5073 265.833 85.5386 265.844L87.534 260.186ZM92.8608 263.762L88.3385 267.705C88.3522 267.72 88.366 267.736 88.3798 267.752L92.8608 263.762ZM96.0078 269.659L96.5879 275.631C98.3554 275.459 99.9561 274.513 100.959 273.048C101.962 271.582 102.264 269.748 101.785 268.038L96.0078 269.659ZM86.2258 270.609L81.0357 273.62C82.214 275.651 84.4688 276.808 86.806 276.581L86.2258 270.609ZM84.0836 268.539L81.1707 273.784C81.2392 273.822 81.3085 273.859 81.3784 273.894L84.0836 268.539ZM77.6516 270.092L72.5974 266.859C72.5813 266.884 72.5654 266.909 72.5498 266.934L77.6516 270.092ZM78.5694 279.539L74.1708 283.62C74.1911 283.642 74.2115 283.664 74.2321 283.685L78.5694 279.539ZM85.1842 279.867L88.9422 284.545C88.9547 284.535 88.9671 284.525 88.9795 284.514L85.1842 279.867ZM86.8837 277.381L86.3036 271.409C83.9664 271.637 81.9764 273.206 81.2112 275.426L86.8837 277.381ZM96.6657 276.431L102.647 276.91C102.788 275.139 102.138 273.397 100.872 272.152C99.6058 270.907 97.853 270.287 96.0855 270.459L96.6657 276.431ZM94.7127 282.824L89.5475 279.771C89.5369 279.789 89.5264 279.807 89.5159 279.825L94.7127 282.824ZM90.1779 287.4L93.2526 292.552C93.2627 292.546 93.2728 292.54 93.2829 292.534L90.1779 287.4ZM75.5021 288.361L72.9985 293.814C73.0158 293.822 73.0331 293.83 73.0504 293.838L75.5021 288.361ZM69.8823 283.506L64.8315 286.745C64.8419 286.761 64.8524 286.777 64.8629 286.793L69.8823 283.506ZM73.339 275.279C73.1337 273.167 73.3904 271.476 73.9431 270.078L62.7837 265.666C61.4394 269.066 61.0319 272.7 61.3952 276.44L73.339 275.279ZM73.9216 270.131C74.4741 268.772 75.2836 267.762 76.4075 266.969L69.4877 257.165C66.452 259.308 64.2053 262.168 62.8051 265.612L73.9216 270.131ZM76.454 266.936C77.5334 266.159 79.0085 265.565 81.1164 265.361L79.956 253.417C76.0999 253.792 72.516 254.984 69.4412 257.198L76.454 266.936ZM81.1164 265.361C82.9108 265.186 84.3143 265.39 85.445 265.81L89.6231 254.561C86.5512 253.42 83.2894 253.093 79.956 253.417L81.1164 265.361ZM85.5386 265.844C86.7297 266.264 87.6219 266.883 88.3385 267.705L97.3831 259.818C95.2503 257.372 92.5913 255.607 89.5295 254.527L85.5386 265.844ZM88.3798 267.752C89.1707 268.64 89.8083 269.774 90.2309 271.28L101.785 268.038C100.916 264.943 99.4559 262.146 97.3417 259.771L88.3798 267.752ZM95.4276 263.687L85.6456 264.637L86.806 276.581L96.5879 275.631L95.4276 263.687ZM91.4159 267.599C90.3426 265.749 88.8014 264.2 86.7887 263.183L81.3784 273.894C81.2851 273.847 81.1916 273.781 81.1149 273.707C81.041 273.635 81.0201 273.593 81.0357 273.62L91.4159 267.599ZM86.9964 263.293C84.9856 262.177 82.7912 261.792 80.6213 262.003L81.7817 273.947C81.7827 273.946 81.7014 273.954 81.564 273.927C81.4227 273.899 81.2848 273.848 81.1707 273.784L86.9964 263.293ZM80.6213 262.003C77.3311 262.322 74.4499 263.963 72.5974 266.859L82.7059 273.325C82.6504 273.412 82.4926 273.606 82.2169 273.771C81.9495 273.93 81.7608 273.949 81.7817 273.947L80.6213 262.003ZM72.5498 266.934C70.8762 269.638 70.5251 272.687 70.8009 275.526L82.7447 274.365C82.6361 273.247 82.8708 273.06 82.7534 273.25L72.5498 266.934ZM70.8009 275.526C71.0768 278.365 72.0081 281.289 74.1708 283.62L82.9681 275.459C83.1198 275.622 82.8533 275.484 82.7447 274.365L70.8009 275.526ZM74.2321 283.685C76.6074 286.17 79.7504 287.225 83.0407 286.906L81.8803 274.962C81.8594 274.964 82.0481 274.945 82.3412 275.051C82.6435 275.159 82.8357 275.319 82.9068 275.394L74.2321 283.685ZM83.0407 286.906C85.1462 286.701 87.1878 285.954 88.9422 284.545L81.4261 275.19C81.5242 275.111 81.638 275.046 81.7482 275.003C81.8544 274.961 81.9088 274.959 81.8803 274.962L83.0407 286.906ZM88.9795 284.514C90.6838 283.122 91.8672 281.336 92.5562 279.337L81.2112 275.426C81.1977 275.466 81.2016 275.44 81.2424 275.381C81.2847 275.319 81.3381 275.262 81.3888 275.22L88.9795 284.514ZM87.4639 283.353L97.2459 282.403L96.0855 270.459L86.3036 271.409L87.4639 283.353ZM90.6848 275.952C90.56 277.512 90.1526 278.747 89.5475 279.771L99.8779 285.877C101.496 283.14 102.39 280.114 102.647 276.91L90.6848 275.952ZM89.5159 279.825C88.9618 280.785 88.1874 281.592 87.0729 282.266L93.2829 292.534C96.0477 290.862 98.2965 288.618 99.9094 285.823L89.5159 279.825ZM87.1033 282.247C86.0593 282.87 84.6989 283.339 82.8801 283.515L84.0404 295.459C87.3495 295.138 90.4676 294.214 93.2526 292.552L87.1033 282.247ZM82.8801 283.515C80.7502 283.722 79.1709 283.43 77.9538 282.885L73.0504 293.838C76.4803 295.373 80.2064 295.831 84.0404 295.459L82.8801 283.515ZM78.0057 282.909C76.719 282.318 75.7122 281.456 74.9017 280.219L64.8629 286.793C66.8931 289.893 69.6329 292.269 72.9985 293.814L78.0057 282.909ZM74.933 280.267C74.1216 279.002 73.5442 277.392 73.339 275.279L61.3952 276.44C61.7585 280.179 62.8579 283.667 64.8315 286.745L74.933 280.267ZM125.625 255.304L131.597 254.724C131.277 251.425 128.344 249.011 125.045 249.332L125.625 255.304ZM128.501 284.9L129.081 290.872C132.379 290.552 134.793 287.618 134.473 284.32L128.501 284.9ZM119.221 285.802L113.249 286.382C113.569 289.68 116.503 292.094 119.801 291.774L119.221 285.802ZM118.1 274.264L124.072 273.684C123.751 270.386 120.818 267.972 117.519 268.292L118.1 274.264ZM109.279 275.121L108.699 269.149C105.401 269.47 102.987 272.403 103.307 275.701L109.279 275.121ZM110.4 286.659L110.98 292.631C114.278 292.31 116.692 289.377 116.372 286.079L110.4 286.659ZM101.12 287.56L95.1479 288.141C95.4683 291.439 98.4018 293.853 101.7 293.532L101.12 287.56ZM98.2444 257.964L97.6642 251.992C94.3661 252.312 91.9521 255.246 92.2725 258.544L98.2444 257.964ZM107.525 257.062L113.497 256.482C113.176 253.184 110.243 250.77 106.945 251.09L107.525 257.062ZM108.56 267.722L102.588 268.302C102.909 271.6 105.842 274.014 109.141 273.694L108.56 267.722ZM117.381 266.865L117.961 272.837C121.259 272.517 123.673 269.583 123.353 266.285L117.381 266.865ZM116.345 256.205L115.765 250.233C112.467 250.554 110.053 253.487 110.373 256.785L116.345 256.205ZM119.654 255.884L122.529 285.481L134.473 284.32L131.597 254.724L119.654 255.884ZM127.921 278.928L118.64 279.83L119.801 291.774L129.081 290.872L127.921 278.928ZM125.192 285.222L124.072 273.684L112.128 274.844L113.249 286.382L125.192 285.222ZM117.519 268.292L108.699 269.149L109.859 281.093L118.68 280.236L117.519 268.292ZM103.307 275.701L104.428 287.239L116.372 286.079L115.251 274.541L103.307 275.701ZM109.82 280.687L100.54 281.589L101.7 293.532L110.98 292.631L109.82 280.687ZM107.092 286.98L104.216 257.384L92.2725 258.544L95.1479 288.141L107.092 286.98ZM98.8246 263.936L108.105 263.034L106.945 251.09L97.6642 251.992L98.8246 263.936ZM101.553 257.642L102.588 268.302L114.532 267.142L113.497 256.482L101.553 257.642ZM109.141 273.694L117.961 272.837L116.801 260.893L107.98 261.75L109.141 273.694ZM123.353 266.285L122.317 255.625L110.373 256.785L111.409 267.445L123.353 266.285ZM116.925 262.177L126.206 261.276L125.045 249.332L115.765 250.233L116.925 262.177ZM151.22 278.178L156.716 275.77C155.674 273.393 153.223 271.955 150.64 272.206L151.22 278.178ZM141.355 279.136L140.775 273.165C138.192 273.415 136.063 275.298 135.498 277.831L141.355 279.136ZM140.326 283.752L140.906 289.723C143.489 289.472 145.618 287.59 146.183 285.057L140.326 283.752ZM130.586 284.698L124.778 283.191C124.286 285.088 124.751 287.105 126.024 288.595C127.296 290.084 129.216 290.859 131.166 290.67L130.586 284.698ZM138.538 254.049L137.958 248.077C135.451 248.321 133.363 250.104 132.73 252.542L138.538 254.049ZM149.239 253.01L154.652 250.42C153.563 248.145 151.169 246.794 148.659 247.038L149.239 253.01ZM162.9 281.558L163.48 287.53C165.429 287.341 167.163 286.213 168.125 284.507C169.088 282.802 169.157 280.735 168.312 278.969L162.9 281.558ZM153.118 282.509L147.622 284.917C148.664 287.294 151.115 288.732 153.698 288.481L153.118 282.509ZM148.285 271.416L148.865 277.388C150.777 277.202 152.484 276.113 153.457 274.457C154.43 272.801 154.552 270.78 153.785 269.019L148.285 271.416ZM144.809 263.441L150.31 261.044C149.271 258.661 146.816 257.218 144.229 257.469C141.642 257.72 139.511 259.609 138.95 262.147L144.809 263.441ZM142.934 271.936L137.075 270.643C136.661 272.518 137.17 274.478 138.444 275.916C139.718 277.353 141.603 278.094 143.514 277.908L142.934 271.936ZM150.64 272.206L140.775 273.165L141.935 285.108L151.801 284.15L150.64 272.206ZM135.498 277.831L134.47 282.446L146.183 285.057L147.211 280.442L135.498 277.831ZM139.746 277.78L130.006 278.726L131.166 290.67L140.906 289.723L139.746 277.78ZM136.394 286.205L144.345 255.556L132.73 252.542L124.778 283.191L136.394 286.205ZM139.118 260.021L149.82 258.981L148.659 247.038L137.958 248.077L139.118 260.021ZM143.827 255.599L157.488 284.148L168.312 278.969L154.652 250.42L143.827 255.599ZM162.32 275.587L152.538 276.537L153.698 288.481L163.48 287.53L162.32 275.587ZM158.614 280.101L156.716 275.77L145.725 280.586L147.622 284.917L158.614 280.101ZM153.785 269.019L150.31 261.044L139.309 265.838L142.784 273.813L153.785 269.019ZM138.95 262.147L137.075 270.643L148.793 273.229L150.668 264.734L138.95 262.147ZM143.514 277.908L148.865 277.388L147.705 265.444L142.354 265.964L143.514 277.908ZM179.89 279.908L174.869 283.192C176.091 285.06 178.249 286.096 180.471 285.88L179.89 279.908ZM173.299 269.83L178.32 266.546C177.098 264.678 174.941 263.642 172.719 263.858L173.299 269.83ZM173.257 269.834L172.677 263.862C169.379 264.183 166.965 267.116 167.285 270.414L173.257 269.834ZM174.289 280.452L174.869 286.424C178.167 286.103 180.581 283.17 180.261 279.872L174.289 280.452ZM165.008 281.354L159.037 281.934C159.357 285.232 162.29 287.646 165.589 287.325L165.008 281.354ZM162.133 251.757L161.553 245.785C158.255 246.105 155.841 249.039 156.161 252.337L162.133 251.757ZM182.199 251.116L180.011 256.702C180.035 256.712 180.06 256.721 180.084 256.731L182.199 251.116ZM186.34 254.216L181.429 257.662C181.455 257.699 181.481 257.736 181.508 257.772L186.34 254.216ZM186.955 264.452L181.784 261.409C181.772 261.43 181.76 261.45 181.748 261.471L186.955 264.452ZM182.552 268.214L180.158 262.712C178.504 263.432 177.262 264.857 176.775 266.594C176.288 268.33 176.608 270.194 177.647 271.669L182.552 268.214ZM190.09 278.917L190.671 284.889C192.797 284.682 194.653 283.361 195.544 281.419C196.435 279.477 196.226 277.208 194.996 275.462L190.09 278.917ZM172.656 263.647L166.684 264.227C167.005 267.525 169.938 269.939 173.236 269.619L172.656 263.647ZM178.284 262.51L182.654 266.622C182.701 266.572 182.747 266.521 182.792 266.469L178.284 262.51ZM177.877 258.751L174.065 263.384C174.111 263.423 174.159 263.461 174.207 263.498L177.877 258.751ZM172.169 258.631L171.589 252.659C168.29 252.979 165.876 255.913 166.197 259.211L172.169 258.631ZM184.912 276.624L178.32 266.546L168.278 273.114L174.869 283.192L184.912 276.624ZM172.719 263.858L172.677 263.862L173.837 275.806L173.879 275.802L172.719 263.858ZM167.285 270.414L168.317 281.032L180.261 279.872L179.229 269.254L167.285 270.414ZM173.709 274.48L164.428 275.382L165.589 287.325L174.869 286.424L173.709 274.48ZM170.98 280.773L168.105 251.177L156.161 252.337L159.037 281.934L170.98 280.773ZM162.713 257.729L176.508 256.389L175.348 244.445L161.553 245.785L162.713 257.729ZM176.508 256.389C178.201 256.224 179.303 256.425 180.011 256.702L184.387 245.529C181.527 244.408 178.449 244.144 175.348 244.445L176.508 256.389ZM180.084 256.731C180.873 257.028 181.222 257.367 181.429 257.662L191.252 250.769C189.5 248.273 187.088 246.545 184.314 245.501L180.084 256.731ZM181.508 257.772C181.814 258.188 182.06 258.74 182.143 259.603L194.087 258.442C193.814 255.627 192.876 252.974 191.173 250.659L181.508 257.772ZM182.143 259.603C182.219 260.379 182.077 260.911 181.784 261.409L192.126 267.496C193.764 264.711 194.396 261.624 194.087 258.442L182.143 259.603ZM181.748 261.471C181.547 261.822 181.16 262.276 180.158 262.712L184.946 273.715C187.939 272.413 190.487 270.36 192.162 267.433L181.748 261.471ZM177.647 271.669L185.185 282.372L194.996 275.462L187.458 264.759L177.647 271.669ZM189.51 272.945L179.31 273.936L180.471 285.88L190.671 284.889L189.51 272.945ZM173.236 269.619L176.915 269.262L175.755 257.318L172.076 257.675L173.236 269.619ZM176.915 269.262C178.546 269.103 180.852 268.536 182.654 266.622L173.915 258.397C174.901 257.35 175.907 257.303 175.755 257.318L176.915 269.262ZM182.792 266.469C184.681 264.319 184.915 261.759 184.738 259.941L172.795 261.102C172.786 261.012 172.698 259.778 173.777 258.55L182.792 266.469ZM184.738 259.941C184.537 257.869 183.631 255.616 181.548 254.005L174.207 263.498C173.748 263.143 173.376 262.686 173.126 262.187C172.886 261.71 172.815 261.313 172.795 261.102L184.738 259.941ZM181.69 254.118C179.574 252.377 177.115 252.122 175.267 252.301L176.428 264.245C176.307 264.257 175.202 264.32 174.065 263.384L181.69 254.118ZM175.267 252.301L171.589 252.659L172.749 264.603L176.428 264.245L175.267 252.301ZM166.197 259.211L166.684 264.227L178.628 263.067L178.141 258.051L166.197 259.211ZM199.418 248.135L205.39 247.554C205.07 244.256 202.136 241.842 198.838 242.163L199.418 248.135ZM202.294 277.731L202.874 283.703C206.172 283.383 208.586 280.449 208.265 277.151L202.294 277.731ZM193.013 278.633L187.041 279.213C187.362 282.511 190.295 284.925 193.593 284.605L193.013 278.633ZM190.138 249.036L189.558 243.064C186.26 243.385 183.846 246.318 184.166 249.616L190.138 249.036ZM193.446 248.715L196.322 278.311L208.265 277.151L205.39 247.554L193.446 248.715ZM201.713 271.759L192.433 272.661L193.593 284.605L202.874 283.703L201.713 271.759ZM198.985 278.053L196.11 248.456L184.166 249.616L187.041 279.213L198.985 278.053ZM190.718 255.008L199.998 254.107L198.838 242.163L189.558 243.064L190.718 255.008ZM226.852 245.469L232.824 244.889C232.504 241.591 229.57 239.177 226.272 239.497L226.852 245.469ZM227.567 252.827L228.147 258.799C231.445 258.478 233.859 255.545 233.539 252.247L227.567 252.827ZM219.708 253.59L219.128 247.618C215.83 247.939 213.416 250.872 213.736 254.17L219.708 253.59ZM221.869 275.83L222.449 281.801C225.747 281.481 228.161 278.548 227.84 275.249L221.869 275.83ZM212.588 276.731L206.616 277.311C206.937 280.609 209.87 283.023 213.168 282.703L212.588 276.731ZM210.428 254.492L216.4 253.912C216.079 250.613 213.146 248.2 209.848 248.52L210.428 254.492ZM202.652 255.247L196.68 255.827C197.001 259.126 199.934 261.54 203.232 261.219L202.652 255.247ZM201.938 247.89L201.357 241.918C198.059 242.238 195.645 245.172 195.966 248.47L201.938 247.89ZM220.88 246.05L221.595 253.407L233.539 252.247L232.824 244.889L220.88 246.05ZM226.987 246.855L219.128 247.618L220.288 259.562L228.147 258.799L226.987 246.855ZM213.736 254.17L215.897 276.41L227.84 275.249L225.68 253.01L213.736 254.17ZM221.288 269.858L212.008 270.759L213.168 282.703L222.449 281.801L221.288 269.858ZM218.56 276.151L216.4 253.912L204.456 255.072L206.616 277.311L218.56 276.151ZM209.848 248.52L202.072 249.275L203.232 261.219L211.008 260.464L209.848 248.52ZM208.624 254.667L207.909 247.31L195.966 248.47L196.68 255.827L208.624 254.667ZM202.518 253.862L227.432 251.441L226.272 239.497L201.357 241.918L202.518 253.862ZM257.795 242.463L263.37 244.683C264.144 242.739 263.849 240.532 262.592 238.859C261.335 237.186 259.298 236.289 257.215 236.491L257.795 242.463ZM249.18 264.104L243.605 261.884C243.252 262.773 243.115 263.732 243.208 264.684L249.18 264.104ZM250.053 273.091L250.633 279.063C253.931 278.743 256.345 275.809 256.025 272.511L250.053 273.091ZM240.772 273.993L234.801 274.573C235.121 277.871 238.054 280.285 241.353 279.965L240.772 273.993ZM239.899 265.005L245.871 264.425C245.779 263.474 245.46 262.558 244.942 261.754L239.899 265.005ZM227.279 245.428L226.699 239.456C224.616 239.658 222.79 240.931 221.878 242.814C220.967 244.698 221.102 246.92 222.236 248.679L227.279 245.428ZM237.897 244.396L243.104 241.416C241.932 239.367 239.667 238.196 237.317 238.424L237.897 244.396ZM243.64 254.43L238.433 257.411C239.606 259.459 241.871 260.63 244.22 260.402C246.57 260.174 248.567 258.589 249.324 256.353L243.64 254.43ZM247.345 243.479L246.764 237.507C244.415 237.735 242.417 239.32 241.661 241.556L247.345 243.479ZM252.221 240.244L243.605 261.884L254.754 266.323L263.37 244.683L252.221 240.244ZM243.208 264.684L244.081 273.672L256.025 272.511L255.151 263.524L243.208 264.684ZM249.473 267.12L240.192 268.021L241.353 279.965L250.633 279.063L249.473 267.12ZM246.744 273.413L245.871 264.425L233.927 265.585L234.801 274.573L246.744 273.413ZM244.942 261.754L232.322 242.177L222.236 248.679L234.856 268.256L244.942 261.754ZM227.859 251.4L238.477 250.368L237.317 238.424L226.699 239.456L227.859 251.4ZM232.69 247.377L238.433 257.411L248.848 251.449L243.104 241.416L232.69 247.377ZM249.324 256.353L253.028 245.401L241.661 241.556L237.957 252.508L249.324 256.353ZM247.925 249.45L258.376 248.435L257.215 236.491L246.764 237.507L247.925 249.45ZM134.225 321.518L134.805 327.49C138.103 327.17 140.517 324.236 140.197 320.938L134.225 321.518ZM124.945 322.42L120.28 326.194C121.548 327.761 123.518 328.587 125.525 328.392L124.945 322.42ZM113.675 308.493L118.339 304.718C116.673 302.659 113.853 301.936 111.402 302.94C108.95 303.943 107.447 306.436 107.703 309.073L113.675 308.493ZM115.121 323.374L115.701 329.346C118.999 329.026 121.413 326.092 121.093 322.794L115.121 323.374ZM105.841 324.276L99.8687 324.856C100.189 328.154 103.123 330.568 106.421 330.248L105.841 324.276ZM102.965 294.679L102.385 288.708C99.0869 289.028 96.6729 291.961 96.9933 295.26L102.965 294.679ZM112.246 293.778L116.939 290.039C115.673 288.45 113.688 287.609 111.665 287.806L112.246 293.778ZM123.539 307.956L118.846 311.694C120.502 313.773 123.328 314.515 125.791 313.518C128.255 312.52 129.768 310.021 129.511 307.376L123.539 307.956ZM122.069 292.823L121.489 286.852C118.191 287.172 115.777 290.105 116.097 293.404L122.069 292.823ZM131.35 291.922L137.321 291.342C137.001 288.043 134.068 285.629 130.769 285.95L131.35 291.922ZM133.645 315.547L124.364 316.448L125.525 328.392L134.805 327.49L133.645 315.547ZM129.609 318.646L118.339 304.718L109.011 312.267L120.28 326.194L129.609 318.646ZM107.703 309.073L109.149 323.955L121.093 322.794L119.647 307.912L107.703 309.073ZM114.541 317.403L105.26 318.304L106.421 330.248L115.701 329.346L114.541 317.403ZM111.812 323.696L108.937 294.099L96.9933 295.26L99.8687 324.856L111.812 323.696ZM103.545 300.651L112.826 299.75L111.665 287.806L102.385 288.708L103.545 300.651ZM107.552 297.516L118.846 311.694L128.233 304.218L116.939 290.039L107.552 297.516ZM129.511 307.376L128.041 292.243L116.097 293.404L117.568 308.536L129.511 307.376ZM122.649 298.795L131.93 297.894L130.769 285.95L121.489 286.852L122.649 298.795ZM125.378 292.502L128.253 322.099L140.197 320.938L137.321 291.342L125.378 292.502ZM156.962 314.794L162.457 312.386C161.416 310.009 158.964 308.572 156.382 308.822L156.962 314.794ZM147.096 315.753L146.516 309.781C143.933 310.032 141.804 311.915 141.24 314.448L147.096 315.753ZM146.068 320.368L146.648 326.34C149.231 326.089 151.359 324.206 151.924 321.673L146.068 320.368ZM136.328 321.314L130.52 319.807C130.028 321.704 130.493 323.721 131.765 325.211C133.038 326.701 134.958 327.476 136.908 327.286L136.328 321.314ZM144.279 290.666L143.699 284.694C141.192 284.937 139.104 286.721 138.471 289.159L144.279 290.666ZM154.981 289.626L160.393 287.036C159.305 284.762 156.91 283.41 154.401 283.654L154.981 289.626ZM168.641 318.175L169.222 324.147C171.17 323.957 172.904 322.829 173.867 321.124C174.829 319.419 174.899 317.351 174.054 315.585L168.641 318.175ZM158.859 319.125L153.364 321.533C154.405 323.91 156.857 325.348 159.44 325.097L158.859 319.125ZM154.026 308.033L154.606 314.004C156.518 313.819 158.225 312.729 159.198 311.073C160.172 309.418 160.294 307.396 159.527 305.636L154.026 308.033ZM150.551 300.057L156.051 297.66C155.013 295.277 152.558 293.834 149.971 294.085C147.383 294.337 145.252 296.226 144.692 298.764L150.551 300.057ZM148.675 308.552L142.816 307.259C142.402 309.134 142.911 311.095 144.185 312.532C145.459 313.969 147.344 314.71 149.256 314.524L148.675 308.552ZM156.382 308.822L146.516 309.781L147.676 321.725L157.542 320.766L156.382 308.822ZM141.24 314.448L140.211 319.063L151.924 321.673L152.953 317.058L141.24 314.448ZM145.487 314.396L135.747 315.342L136.908 327.286L146.648 326.34L145.487 314.396ZM142.135 322.821L150.087 292.172L138.471 289.159L130.52 319.807L142.135 322.821ZM144.859 296.638L155.561 295.598L154.401 283.654L143.699 284.694L144.859 296.638ZM149.568 292.216L163.229 320.765L174.054 315.585L160.393 287.036L149.568 292.216ZM168.061 312.203L158.279 313.153L159.44 325.097L169.222 324.147L168.061 312.203ZM164.355 316.717L162.457 312.386L151.466 317.202L153.364 321.533L164.355 316.717ZM159.527 305.636L156.051 297.66L145.05 302.454L148.526 310.43L159.527 305.636ZM144.692 298.764L142.816 307.259L154.534 309.846L156.41 301.351L144.692 298.764ZM149.256 314.524L154.606 314.004L153.446 302.061L148.095 302.581L149.256 314.524ZM203.449 284.917L209.421 284.337C209.1 281.039 206.167 278.625 202.869 278.945L203.449 284.917ZM206.324 314.514L206.905 320.486C210.203 320.165 212.617 317.232 212.296 313.934L206.324 314.514ZM197.086 315.411L191.114 315.992C191.434 319.29 194.368 321.704 197.666 321.383L197.086 315.411ZM195.652 300.655L201.624 300.075C201.337 297.121 198.933 294.82 195.969 294.663C193.006 294.506 190.372 296.54 189.775 299.447L195.652 300.655ZM192.529 315.854L193.109 321.826C195.729 321.571 197.877 319.64 198.407 317.062L192.529 315.854ZM184.587 316.626L179.052 318.942C180.068 321.37 182.547 322.852 185.167 322.598L184.587 316.626ZM178.597 302.312L184.131 299.996C182.986 297.258 180.01 295.769 177.132 296.493C174.254 297.218 172.338 299.938 172.625 302.892L178.597 302.312ZM180.03 317.068L180.61 323.04C183.908 322.72 186.322 319.786 186.002 316.488L180.03 317.068ZM170.75 317.97L164.778 318.55C165.098 321.848 168.032 324.262 171.33 323.942L170.75 317.97ZM167.874 288.373L167.294 282.401C163.996 282.722 161.582 285.655 161.903 288.954L167.874 288.373ZM179.245 287.269L184.651 284.666C183.56 282.399 181.169 281.053 178.665 281.297L179.245 287.269ZM187.492 304.401L182.086 307.004C183.181 309.28 185.585 310.626 188.097 310.371C190.61 310.116 192.694 308.315 193.311 305.866L187.492 304.401ZM192.12 286.018L191.54 280.046C189.017 280.291 186.921 282.095 186.302 284.553L192.12 286.018ZM197.477 285.497L200.352 315.094L212.296 313.934L209.421 284.337L197.477 285.497ZM205.744 308.542L196.506 309.44L197.666 321.383L206.905 320.486L205.744 308.542ZM203.058 314.831L201.624 300.075L189.68 301.235L191.114 315.992L203.058 314.831ZM189.775 299.447L186.652 314.647L198.407 317.062L201.529 301.862L189.775 299.447ZM191.949 309.882L184.007 310.654L185.167 322.598L193.109 321.826L191.949 309.882ZM190.122 314.309L184.131 299.996L173.062 304.628L179.052 318.942L190.122 314.309ZM172.625 302.892L174.058 317.649L186.002 316.488L184.568 301.732L172.625 302.892ZM179.45 311.097L170.17 311.998L171.33 323.942L180.61 323.04L179.45 311.097ZM176.722 317.39L173.846 287.793L161.903 288.954L164.778 318.55L176.722 317.39ZM168.455 294.345L179.825 293.241L178.665 281.297L167.294 282.401L168.455 294.345ZM173.839 289.871L182.086 307.004L192.898 301.799L184.651 284.666L173.839 289.871ZM193.311 305.866L197.939 287.483L186.302 284.553L181.674 302.937L193.311 305.866ZM192.7 291.99L204.029 290.889L202.869 278.945L191.54 280.046L192.7 291.99ZM217.636 291.008L217.055 285.036C213.757 285.357 211.343 288.29 211.664 291.588L217.636 291.008ZM217.989 294.645L212.017 295.225C212.337 298.523 215.271 300.937 218.569 300.617L217.989 294.645ZM227.186 293.751L233.158 293.171C232.837 289.873 229.904 287.459 226.605 287.779L227.186 293.751ZM227.864 300.733L228.444 306.704C231.742 306.384 234.156 303.451 233.836 300.152L227.864 300.733ZM218.667 301.626L218.087 295.654C214.789 295.975 212.375 298.908 212.695 302.206L218.667 301.626ZM219.073 305.806L213.101 306.386C213.422 309.685 216.355 312.099 219.653 311.778L219.073 305.806ZM229.524 304.791L235.496 304.211C235.176 300.913 232.242 298.499 228.944 298.819L229.524 304.791ZM230.243 312.19L230.823 318.162C234.121 317.842 236.535 314.908 236.215 311.61L230.243 312.19ZM210.512 314.107L204.54 314.687C204.86 317.985 207.794 320.399 211.092 320.079L210.512 314.107ZM207.636 284.51L207.056 278.539C203.758 278.859 201.344 281.792 201.665 285.091L207.636 284.51ZM227.368 282.594L233.339 282.013C233.019 278.715 230.086 276.301 226.787 276.622L227.368 282.594ZM228.086 289.993L228.667 295.965C231.965 295.644 234.379 292.711 234.058 289.412L228.086 289.993ZM211.664 291.588L212.017 295.225L223.961 294.065L223.608 290.428L211.664 291.588ZM218.569 300.617L227.766 299.723L226.605 287.779L217.409 288.673L218.569 300.617ZM221.214 294.332L221.892 301.313L233.836 300.152L233.158 293.171L221.214 294.332ZM227.284 294.761L218.087 295.654L219.247 307.598L228.444 306.704L227.284 294.761ZM212.695 302.206L213.101 306.386L225.045 305.226L224.639 301.046L212.695 302.206ZM219.653 311.778L230.104 310.763L228.944 298.819L218.493 299.834L219.653 311.778ZM223.552 305.371L224.271 312.77L236.215 311.61L235.496 304.211L223.552 305.371ZM229.663 306.218L209.932 308.135L211.092 320.079L230.823 318.162L229.663 306.218ZM216.484 313.527L213.608 283.93L201.665 285.091L204.54 314.687L216.484 313.527ZM208.217 290.482L227.948 288.565L226.787 276.622L207.056 278.539L208.217 290.482ZM221.396 283.174L222.115 290.573L234.058 289.412L233.339 282.013L221.396 283.174ZM227.506 284.021L217.055 285.036L218.216 296.98L228.667 295.965L227.506 284.021Z" fill="#00AEEF"/>
<defs>
<filter id="filter0_d" x="10" y="10" width="297" height="298" filterUnits="userSpaceOnUse" color-interpolation-filters="sRGB">
<feFlood flood-opacity="0" result="BackgroundImageFix"/>
<feColorMatrix in="SourceAlpha" type="matrix" values="0 0 0 0 0 0 0 0 0 0 0 0 0 0 0 0 0 0 127 0" result="hardAlpha"/>
<feOffset dy="4"/>
<feGaussianBlur stdDeviation="2"/>
<feColorMatrix type="matrix" values="0 0 0 0 0 0 0 0 0 0 0 0 0 0 0 0 0 0 0.25 0"/>
<feBlend mode="normal" in2="BackgroundImageFix" result="effect1_dropShadow"/>
<feBlend mode="normal" in="SourceGraphic" in2="effect1_dropShadow" result="shape"/>
</filter>
<filter id="filter1_d" x="0" y="0" width="297" height="298" filterUnits="userSpaceOnUse" color-interpolation-filters="sRGB">
<feFlood flood-opacity="0" result="BackgroundImageFix"/>
<feColorMatrix in="SourceAlpha" type="matrix" values="0 0 0 0 0 0 0 0 0 0 0 0 0 0 0 0 0 0 127 0" result="hardAlpha"/>
<feOffset dy="4"/>
<feGaussianBlur stdDeviation="2"/>
<feColorMatrix type="matrix" values="0 0 0 0 0 0 0 0 0 0 0 0 0 0 0 0 0 0 0.25 0"/>
<feBlend mode="normal" in2="BackgroundImageFix" result="effect1_dropShadow"/>
<feBlend mode="normal" in="SourceGraphic" in2="effect1_dropShadow" result="shape"/>
</filter>
</defs>
</svg>
