<svg viewBox="0 0 163 45" fill="none" xmlns="http://www.w3.org/2000/svg">
  <path
    d="M4.76207 30.6231C4.62088 31.3066 4.62634 31.813 4.77989 32.1425C4.93229 32.472 5.18562 32.6371 5.53816 32.6371C6.19635 32.6371 6.82004 32.5083 7.40779 32.2489L7.30226 35.3619C6.8787 35.6184 6.2668 35.8271 5.46771 35.991C4.66833 36.1535 3.88016 36.2352 3.10436 36.2352C2.09277 36.2352 1.323 36.0411 0.793917 35.6534C0.264831 35.2653 0 34.5421 0 33.4839C0 32.9433 0.0707366 32.3199 0.211922 31.6143L4.55072 11.1199H8.88952L4.76207 30.6231Z"
    fill="#0BA3F7" />
  <path
    d="M9.20638 30.0974C9.20638 28.2399 9.47064 26.5468 9.99972 25.0179C10.5288 23.4896 11.2345 22.1844 12.1164 21.1024C12.998 20.0209 14.0208 19.1799 15.1853 18.5803C16.3493 17.9808 17.5662 17.6809 18.836 17.6809C19.965 17.6809 20.917 17.8574 21.6931 18.21C22.4692 18.5631 23.0984 19.0335 23.5803 19.621C24.0622 20.2093 24.4096 20.8793 24.6209 21.6315C24.8323 22.3846 24.9384 23.1604 24.9384 23.9598C24.9384 25.794 24.679 27.4696 24.1623 28.9864C23.645 30.5029 22.9508 31.8029 22.081 32.8841C21.2109 33.9661 20.1996 34.8069 19.0477 35.4061C17.8949 36.006 16.684 36.3059 15.4142 36.3059C14.3083 36.3059 13.3686 36.1233 12.5922 35.759C11.8164 35.3946 11.1749 34.9185 10.6697 34.3304C10.1639 33.743 9.79327 33.0782 9.55863 32.3372C9.32399 31.5961 9.20638 30.8502 9.20638 30.0974ZM13.6858 29.5129C13.6858 31.6424 14.4498 32.7072 15.9787 32.7072C16.5431 32.7072 17.0955 32.4594 17.637 31.9622C18.1776 31.465 18.6601 30.8146 19.0828 30.01C19.5066 29.2052 19.8416 28.294 20.0886 27.2766C20.3353 26.2593 20.459 25.2416 20.459 24.2243C20.459 23.278 20.2999 22.5505 19.9825 22.0418C19.665 21.5329 19.071 21.2784 18.2011 21.2784C17.637 21.2784 17.084 21.5153 16.5431 21.9883C16.002 22.4616 15.5203 23.083 15.0971 23.8516C14.6738 24.6211 14.3328 25.5024 14.074 26.4962C13.8152 27.4903 13.6858 28.4955 13.6858 29.5129Z"
    fill="#0BA3F7" />
  <path
    d="M27.3371 18.1746H29.6297L30.3353 14.8589L34.9562 13.5537L33.9682 18.1746H38.0957L37.2842 21.7727H33.1927L31.4643 29.7964C31.3228 30.4359 31.2526 30.9561 31.2526 31.3587C31.2526 31.8794 31.3699 32.2342 31.6054 32.4237C31.8401 32.6135 32.1932 32.7075 32.6636 32.7075C33.1102 32.7075 33.5159 32.6581 33.8805 32.558C34.2451 32.4588 34.627 32.2969 35.027 32.0726V35.3179C34.7679 35.4588 34.4565 35.5945 34.0924 35.7236C33.7272 35.8524 33.3336 35.958 32.9106 36.0411C32.4871 36.1233 32.052 36.1877 31.6054 36.2352C31.1583 36.282 30.7465 36.3059 30.371 36.3059C29.1714 36.3059 28.248 36.0284 27.6019 35.4749C26.9547 34.9211 26.6317 34.0786 26.6317 32.9462C26.6317 32.711 26.6493 32.4634 26.6849 32.204C26.72 31.945 26.7606 31.6735 26.8083 31.3903L28.8542 21.7727H26.4903L27.3371 18.1746Z"
    fill="#0BA3F7" />
  <path
    d="M38.1655 18.1746H40.4584L41.1641 14.8589L45.785 13.5537L44.7972 18.1746H48.9247L48.1132 21.7727H44.0214L42.293 29.7964C42.1521 30.4359 42.0816 30.9561 42.0816 31.3587C42.0816 31.8794 42.199 32.2342 42.4345 32.4237C42.6691 32.6135 43.0219 32.7075 43.4926 32.7075C43.9389 32.7075 44.3449 32.6581 44.7095 32.558C45.0736 32.4588 45.456 32.2969 45.856 32.0726V35.3179C45.5969 35.4588 45.2855 35.5945 44.9212 35.7236C44.556 35.8524 44.1629 35.958 43.7394 36.0411C43.3161 36.1233 42.8807 36.1877 42.4345 36.2352C41.987 36.282 41.5756 36.3059 41.1997 36.3059C40.0004 36.3059 39.0771 36.0284 38.4307 35.4749C37.7834 34.9211 37.4608 34.0786 37.4608 32.9462C37.4608 32.711 37.4783 32.4634 37.514 32.204C37.5485 31.945 37.5899 31.6735 37.6373 31.3903L39.6832 21.7727H37.3193L38.1655 18.1746Z"
    fill="#0BA3F7" />
  <path
    d="M47.9367 30.0974C47.9367 28.2399 48.2012 26.5468 48.7303 25.0179C49.2594 23.4896 49.965 22.1844 50.8467 21.1024C51.7283 20.0209 52.7517 19.1799 53.9154 18.5803C55.0796 17.9808 56.2965 17.6809 57.5663 17.6809C58.6953 17.6809 59.6476 17.8574 60.4234 18.21C61.2001 18.5631 61.8287 19.0335 62.3109 19.621C62.7925 20.2093 63.1399 20.8793 63.3515 21.6315C63.5631 22.3846 63.669 23.1604 63.669 23.9598C63.669 25.794 63.4096 27.4696 62.8926 28.9864C62.3753 30.5029 61.6811 31.8029 60.8119 32.8841C59.9415 33.9661 58.9299 34.8069 57.778 35.4061C56.6255 36.006 55.4141 36.3059 54.1448 36.3059C53.0389 36.3059 52.0989 36.1233 51.3228 35.759C50.547 35.3946 49.9058 34.9185 49.4003 34.3304C48.8942 33.743 48.5236 33.0782 48.2895 32.3372C48.0537 31.5961 47.9367 30.8502 47.9367 30.0974ZM52.4164 29.5129C52.4164 31.6424 53.1801 32.7072 54.7096 32.7072C55.2737 32.7072 55.8261 32.4594 56.3673 31.9622C56.9081 31.465 57.3904 30.8146 57.8136 30.01C58.2369 29.2052 58.5719 28.294 58.8186 27.2766C59.0659 26.2593 59.189 25.2416 59.189 24.2243C59.189 23.278 59.0305 22.5505 58.7131 22.0418C58.3956 21.5329 57.8013 21.2784 56.9314 21.2784C56.3673 21.2784 55.8143 21.5153 55.2737 21.9883C54.7323 22.4616 54.2506 23.083 53.8277 23.8516C53.4044 24.6211 53.0631 25.5024 52.8046 26.4962C52.5452 27.4903 52.4164 28.4955 52.4164 29.5129Z"
    fill="#0BA3F7" />
  <path
    d="M107.654 31.6847C108.124 31.9527 108.73 32.19 109.471 32.3973C110.211 32.6046 110.993 32.7075 111.816 32.7075C112.639 32.7075 113.268 32.5477 113.703 32.2282C114.138 31.9084 114.367 31.4165 114.391 30.7525C114.391 30.2786 114.25 29.8703 113.968 29.5264C113.685 29.1831 113.327 28.8573 112.892 28.5493C112.456 28.2411 111.992 27.9279 111.498 27.6105C111.005 27.293 110.54 26.9287 110.105 26.5166C109.67 26.1057 109.311 25.6172 109.029 25.053C108.747 24.4883 108.606 23.8065 108.606 23.0068C108.606 22.231 108.758 21.5139 109.065 20.8554C109.37 20.1972 109.799 19.6328 110.352 19.1621C110.905 18.6919 111.575 18.3279 112.363 18.0685C113.15 17.81 114.039 17.6803 115.026 17.6803C116.39 17.6803 117.518 17.781 118.412 17.9802C119.306 18.1804 120.011 18.4331 120.528 18.7388L119.329 22.0545C118.858 21.8328 118.289 21.6482 117.618 21.5004C116.948 21.3526 116.248 21.2784 115.52 21.2784C114.767 21.2784 114.173 21.4092 113.738 21.6695C113.303 21.9308 113.086 22.3461 113.086 22.9154C113.086 23.295 113.227 23.6328 113.509 23.9293C113.791 24.2258 114.15 24.5286 114.585 24.8371C115.02 25.1456 115.484 25.4582 115.978 25.7756C116.472 26.0931 116.936 26.4758 117.372 26.9221C117.807 27.3692 118.165 27.8805 118.447 28.4567C118.73 29.0333 118.871 29.7208 118.871 30.5202C118.871 32.4723 118.236 33.9241 116.966 34.8765C115.696 35.8289 114.003 36.3053 111.887 36.3053C110.687 36.3053 109.588 36.1932 108.588 35.97C107.588 35.7469 106.819 35.4709 106.278 35.141L107.654 31.6847Z"
    fill="#F78B0B" />
  <path
    d="M122.117 18.1746H124.409L125.115 14.8589L129.735 13.5537L128.748 18.1746H132.875L132.064 21.7727H127.972L126.243 29.7964C126.102 30.4359 126.032 30.9561 126.032 31.3587C126.032 31.8794 126.149 32.2342 126.385 32.4237C126.62 32.6135 126.973 32.7075 127.443 32.7075C127.89 32.7075 128.295 32.6581 128.66 32.558C129.025 32.4588 129.406 32.2969 129.806 32.0726V35.3179C129.548 35.4588 129.236 35.5945 128.871 35.7236C128.507 35.8524 128.113 35.958 127.69 36.0411C127.267 36.1233 126.831 36.1877 126.385 36.2352C125.938 36.282 125.526 36.3059 125.15 36.3059C123.951 36.3059 123.027 36.0284 122.381 35.4749C121.734 34.9211 121.411 34.0786 121.411 32.9462C121.411 32.711 121.429 32.4634 121.464 32.204C121.5 31.945 121.54 31.6735 121.588 31.3903L123.633 21.7727H121.27L122.117 18.1746Z"
    fill="#F78B0B" />
  <path
    d="M146.385 28.7566C146.197 29.6506 146.062 30.5555 145.979 31.4728C145.897 32.3898 145.856 33.2602 145.856 34.0829C145.856 34.4124 145.861 34.7238 145.873 35.0177C145.885 35.3119 145.903 35.5882 145.927 35.847H142.716L142.223 32.8131H142.082C141.822 33.2366 141.488 33.6544 141.076 34.0653C140.665 34.4771 140.212 34.8532 139.718 35.194C139.224 35.5356 138.701 35.8059 138.148 36.0054C137.596 36.2047 137.025 36.3053 136.438 36.3053C134.886 36.3053 133.739 35.7995 132.998 34.7885C132.258 33.7775 131.887 32.4249 131.887 30.7321C131.887 29.0157 132.104 27.3695 132.54 25.7935C132.975 24.2183 133.652 22.8303 134.569 21.6309C135.486 20.4319 136.643 19.4738 138.043 18.7563C139.442 18.0392 141.106 17.6803 143.034 17.6803C143.857 17.6803 144.756 17.7571 145.733 17.9098C146.708 18.0631 147.655 18.2684 148.572 18.5269L146.385 28.7566ZM138.096 32.7075C138.519 32.7075 138.919 32.6187 139.295 32.4413C139.671 32.2639 140.018 32.0335 140.335 31.7491C140.653 31.4653 140.935 31.1577 141.182 30.8267C141.429 30.4954 141.646 30.1875 141.835 29.904L143.598 21.6335C143.339 21.5156 143.04 21.4268 142.699 21.3673C142.358 21.3083 142.023 21.2784 141.694 21.2784C140.847 21.2784 140.094 21.5332 139.436 22.0418C138.777 22.5505 138.219 23.2127 137.76 24.0294C137.302 24.8463 136.955 25.7687 136.72 26.7979C136.485 27.8273 136.367 28.8625 136.367 29.9037C136.367 30.6608 136.491 31.3172 136.737 31.8736C136.984 32.4298 137.437 32.7075 138.096 32.7075Z"
    fill="#F78B0B" />
  <path
    d="M155.626 18.1746L155.662 21.3416H155.803C156.32 20.3838 156.949 19.5692 157.69 18.8984C158.43 18.2281 159.365 17.8925 160.494 17.8925C160.988 17.8925 161.576 17.9886 162.258 18.1798L161.164 22.0197C160.929 21.9492 160.706 21.8909 160.494 21.8434C160.282 21.7965 160.059 21.773 159.824 21.773C158.859 21.773 157.972 22.0832 157.161 22.7032C156.349 23.3231 155.732 24.0426 155.308 24.8615L153.016 35.8122H148.677L152.416 18.1749H155.626V18.1746Z"
    fill="#F78B0B" />
  <path
    d="M108.35 18.9004L105.969 16.4491L86.5166 16.4505L84.3813 22.8594L88.7445 18.8972L104.266 18.8984L95.4814 25.4499L99.9499 38.8915L98.4038 26.301L108.35 18.9004Z"
    fill="#F78B0B" />
  <path
    d="M87.7757 0.891296L84.6984 2.37791L78.5667 20.8387L83.9752 24.8857L81.5912 19.4959L86.4858 4.76599L89.9332 15.168L104.099 15.166L91.6628 12.6638L87.7757 0.891296Z"
    fill="#0BA3F7" />
  <path
    d="M97.7502 44.1056L99.3297 41.0751L93.219 22.6077L86.4642 22.593L91.5958 25.4909L96.4694 40.228L87.4908 33.9451L76.1324 42.4093L87.6001 36.9871L97.7502 44.1056Z"
    fill="#F78B0B" />
  <path
    d="M70.4861 41.9539L73.8599 42.4968L89.457 30.8724L87.3398 24.4575L86.2086 30.2415L73.7616 39.5155L76.8915 29.0137L65.2761 20.9048L74.0393 30.0762L70.4861 41.9539Z"
    fill="#F78B0B" />
  <path
    d="M63.926 15.4095L64.4821 18.7813L80.4559 29.8823L85.8673 25.8383L80.0235 26.6017L67.278 17.7421L78.2303 17.3761L82.2333 3.78802L76.3176 15.0093L63.926 15.4095Z"
    fill="#F78B0B" />
</svg>