<svg viewBox="0 0 319 361" fill="none" xmlns="http://www.w3.org/2000/svg">
<path d="M118.752 205.548L138.242 201.4L151.38 234.565L149.919 198.916L169.117 194.832L166.711 260.376L172.771 288.769L154.012 292.76L147.999 264.449L118.752 205.548Z" fill="#5C006A"/>
<path d="M193.284 189.659C179.513 192.589 170.724 206.084 173.652 219.8L182.389 260.728C185.317 274.444 198.854 283.189 212.625 280.259C226.396 277.329 235.186 263.835 232.257 250.118L223.52 209.19C220.592 195.474 207.055 186.73 193.284 189.659ZM211.015 256.953C211.393 258.724 210.258 260.466 208.48 260.844C206.703 261.223 204.955 260.094 204.576 258.323L194.931 213.14C194.553 211.369 195.688 209.627 197.466 209.248C199.243 208.87 200.991 209.999 201.37 211.77L211.015 256.953Z" fill="#5C006A"/>
<path d="M254.259 176.687L268.733 244.491C269.111 246.261 267.976 248.004 266.198 248.382C264.42 248.76 262.673 247.631 262.294 245.86L247.82 178.057L225.842 182.733L239.825 248.234C242.784 262.095 256.464 270.932 270.38 267.971C284.296 265.01 293.179 251.373 290.22 237.512L276.237 172.011L254.259 176.687Z" fill="#5C006A"/>
<g filter="url(#filter0_d)">
<path d="M96.6145 71.7184C99.0584 71.4221 112.141 70.5682 113.87 85.9379C115.778 102.902 107.502 126.909 96.1483 141.941C96.1483 141.942 92.2557 187.628 95.5119 200.588C95.5119 200.588 96.5115 207.581 100.957 207.042C101.192 207.014 101.437 206.964 101.692 206.892C105.036 205.936 105.652 205.683 112.366 191.222C112.391 191.17 112.664 190.356 114.022 190.128C114.116 190.112 114.213 190.098 114.311 190.086C115.873 189.897 117.842 190.303 117.572 194.432C117.285 198.82 112.239 215.314 98.6031 217.362C98.3968 217.392 98.1927 217.42 97.9899 217.445C84.7736 219.047 78.494 207.26 76.9244 197.93C75.3307 188.457 75.2347 167.086 75.2349 167.083C75.2336 167.085 58.23 184.598 44.9666 186.383C44.762 186.41 44.5593 186.437 44.3565 186.461C34.9306 187.604 27.3879 185.545 22.5453 179.461C19.548 175.695 18.0898 170.943 18.3323 166.14C18.5434 161.952 19.3142 156.409 21.8829 155.639C21.8829 155.639 21.969 155.6 22.1268 155.581C22.6287 155.52 23.8547 155.663 25.3378 157.921C25.3378 157.921 35.81 172.702 49.8796 170.996C50.7571 170.889 51.6511 170.718 52.5547 170.476C52.5547 170.476 63.8637 168.131 75.6406 155.081C75.6405 155.081 76.2414 129.233 77.6406 116.867C78.7001 107.504 78.2305 90.3221 84.6552 79.8858C87.2236 75.7143 91.4194 72.7955 96.2221 71.7733C96.2216 71.7739 96.3609 71.7491 96.6145 71.7184ZM96.7897 126.172C96.7925 126.168 108.771 101.895 106.606 87.0262C106.186 84.1398 104.425 78.5307 98.8129 78.323C98.813 78.3241 97.5848 123.016 96.7897 126.172ZM96.3645 69.6565C96.0685 69.6924 95.8901 69.7235 95.8571 69.729C95.834 69.7329 95.8109 69.7378 95.7879 69.7427C93.1161 70.3114 90.631 71.3899 88.4027 72.9494C86.1613 74.5177 84.3024 76.4869 82.8776 78.801C80.5048 82.6548 78.8181 87.6289 77.7206 94.0076C76.7948 99.3894 76.4365 104.844 76.1206 109.657C75.9523 112.223 75.793 114.647 75.568 116.636C74.9823 121.814 74.4657 129.852 74.0322 140.529C73.8638 144.675 73.7433 148.396 73.672 150.789C73.6709 150.819 73.6077 152.973 73.5753 154.257C71.1575 156.873 68.5827 159.225 65.9132 161.255C63.6269 162.995 61.2653 164.503 58.8943 165.739C54.9219 167.81 52.2421 168.417 52.1286 168.443C52.0866 168.451 52.0565 168.459 52.0143 168.47C51.2266 168.681 50.4239 168.838 49.6291 168.934C46.782 169.279 43.8515 168.883 40.9195 167.757C38.508 166.831 36.0845 165.412 33.7169 163.54C29.7744 160.423 27.2856 157.058 27.0568 156.744C26.2346 155.501 25.3359 154.601 24.3862 154.07C23.3475 153.489 22.4481 153.45 21.8762 153.518C21.5958 153.552 21.3686 153.615 21.1986 153.676C20.1314 154.02 19.2265 154.772 18.5084 155.912C17.9818 156.748 17.5573 157.781 17.2101 159.071C16.7133 160.915 16.3906 163.259 16.2501 166.038C15.9788 171.409 17.6342 176.635 20.9114 180.751C23.5401 184.054 26.9725 186.376 31.1138 187.655C33.0808 188.262 35.2378 188.64 37.5249 188.778C39.7284 188.91 42.1112 188.825 44.6064 188.522C44.8159 188.497 45.0305 188.469 45.2439 188.441C48.5245 187.999 52.2422 186.651 56.2937 184.434C59.4524 182.706 62.8378 180.439 66.3569 177.699C69.0651 175.59 71.4273 173.532 73.2111 171.901C73.3377 178.818 73.7207 191.453 74.8686 198.274C75.3102 200.899 76.082 203.554 77.0999 205.951C78.2756 208.719 79.7617 211.141 81.517 213.151C83.5496 215.478 85.9129 217.21 88.5408 218.301C91.4881 219.524 94.7517 219.929 98.2398 219.506C98.4618 219.479 98.6881 219.449 98.9118 219.415C102.434 218.886 105.686 217.453 108.578 215.155C110.954 213.267 113.073 210.81 114.876 207.85C118.088 202.577 119.492 197.016 119.652 194.564C119.731 193.359 119.653 192.345 119.416 191.468C119.159 190.521 118.713 189.743 118.089 189.155C117.499 188.599 116.775 188.234 115.939 188.07C115.36 187.956 114.745 187.941 114.061 188.024C113.935 188.039 113.807 188.058 113.677 188.079C112.718 188.24 111.918 188.616 111.3 189.195C110.928 189.543 110.645 189.943 110.457 190.386C106.497 198.912 105.113 201.441 104.062 202.923C103.428 203.818 103.024 204.129 102.743 204.3C102.354 204.535 101.872 204.679 101.118 204.895C100.975 204.935 100.836 204.964 100.707 204.98C100.257 205.035 99.9144 204.939 99.5608 204.66C99.1794 204.359 98.8056 203.849 98.4794 203.185C97.8182 201.837 97.5851 200.357 97.575 200.29C97.565 200.216 97.5521 200.153 97.5339 200.081C96.2514 194.977 95.9595 183.371 96.6903 166.52C97.1759 155.32 97.9721 145.205 98.1766 142.704C103.786 135.144 108.672 125.439 111.966 115.302C113.664 110.074 114.876 104.931 115.567 100.017C116.299 94.815 116.425 89.9992 115.942 85.705C115.611 82.7628 114.862 80.161 113.715 77.9729C112.682 76.0003 111.314 74.3355 109.649 73.0242C104.567 69.0209 98.1958 69.4345 96.3645 69.6565ZM99.6882 113.896C99.8328 110.598 99.9974 106.425 100.183 101.135C100.469 92.9907 100.711 84.8872 100.826 80.9013C101.637 81.3004 102.331 81.9381 102.92 82.8217C104.036 84.4935 104.427 86.5289 104.543 87.3266C105.001 90.4731 104.802 94.386 103.951 98.9559C103.254 102.7 102.123 106.872 100.588 111.355C100.29 112.226 99.9888 113.075 99.6882 113.896Z" fill="white"/>
</g>
<path d="M113.87 85.9379C111.962 68.9737 96.2222 71.7738 96.2217 71.7738C91.4189 72.7955 87.2227 75.7144 84.6548 79.8863C78.2301 90.3227 78.6992 107.504 77.6402 116.868C76.2416 129.233 75.6406 155.081 75.6402 155.082C63.8628 168.131 52.5543 170.476 52.5543 170.476C37.1592 174.605 25.3373 157.921 25.3373 157.921C23.3881 154.953 21.8824 155.639 21.8824 155.639C19.3143 156.409 18.5435 161.953 18.3319 166.14C18.0893 170.943 19.5474 175.694 22.5449 179.461C27.4915 185.676 35.2551 187.691 44.9661 186.383C58.2294 184.597 75.233 167.084 75.2345 167.083C75.2347 167.085 75.3301 188.456 76.924 197.93C78.5178 207.403 84.9668 219.41 98.6026 217.362C112.239 215.313 117.285 198.82 117.572 194.432C117.859 190.043 115.616 189.86 114.022 190.128C112.663 190.356 112.39 191.17 112.366 191.222C105.651 205.683 105.036 205.936 101.691 206.891C96.6199 208.34 95.5114 200.588 95.5114 200.588C92.2553 187.628 96.1479 141.942 96.1478 141.941C107.502 126.909 115.778 102.903 113.87 85.9379ZM98.813 78.323C104.425 78.5307 106.186 84.1397 106.606 87.0261C108.771 101.894 96.7925 126.168 96.7898 126.172C97.5843 123.016 98.8131 78.324 98.813 78.323Z" fill="white"/>
<g filter="url(#filter1_d)">
<path d="M203.733 37.4174C204.764 37.2924 215.171 36.4469 217.797 52.8251C217.921 53.5993 218.053 54.3726 218.198 55.1432C219.067 59.7515 221.609 79.029 206.668 92.554C206.668 92.5551 206.638 108.467 206.969 110.592C206.973 110.582 214.978 91.3263 221.055 90.5916C221.261 90.5667 221.465 90.5628 221.666 90.5819C226.691 91.0574 229.077 96.7763 229.532 98.6297C229.682 99.2387 230.255 101.489 225.581 102.056C225.284 102.092 224.965 102.121 224.623 102.142C224.623 102.142 224.483 102.14 224.222 102.171C222.539 102.375 215.849 104.022 209.608 117.222C209.616 117.213 212.602 114.267 217.126 113.718C218.616 113.538 220.273 113.618 222.045 114.149C224.436 114.866 225.962 116.91 226.9 118.828C227.74 120.544 228.224 122.411 228.365 124.316C228.587 127.314 229.228 134.211 227.831 140.12C227.206 142.763 228.664 145.867 230.417 145.891C230.605 145.893 230.798 145.886 230.997 145.862C232.931 145.627 235.412 143.826 238.197 134.483C238.197 134.483 234.181 118.008 234.065 105.528C233.955 93.6685 234.016 85.7601 240.717 84.9482C240.873 84.9293 241.033 84.9141 241.196 84.9031C241.196 84.9031 251.036 84.2725 251.505 91.0596C251.505 91.0601 248.3 112.16 248.141 120.3C247.995 127.727 248.397 136.763 252.589 136.254C252.992 136.206 253.43 136.069 253.904 135.834C253.904 135.834 259.594 134.685 260.272 123.814C260.95 112.943 259.034 84.7652 259.614 82.326C260.195 79.8862 260.412 77.4633 266.691 76.4929C266.859 76.4668 267.024 76.4441 267.186 76.4245C273.07 75.711 274.875 79.1551 274.753 84.1639C274.628 89.3101 275.451 138.595 271.628 157.236C271.631 157.237 293.124 161.624 299.269 187.254C305.414 212.886 289.548 218.821 286.203 219.777C285.613 219.946 284.86 220.103 284.01 220.206C280.102 220.68 274.133 219.999 272.407 213.927C272.008 212.523 271.861 210.987 277.335 208.621C283.721 205.86 289.109 193.751 285.322 182.115C281.676 170.914 279.144 168.223 270.81 164.297C270.81 164.302 269.279 197.842 228.068 230.073C228.068 230.073 213.307 242.11 198.098 243.954C192.874 244.588 187.595 244.018 182.845 241.344C174.577 236.689 170.524 227.054 172.791 217.861C175.573 206.586 184.129 187.667 210.315 171.561C210.315 171.561 226.226 159.791 253.053 156.54C254.519 156.362 256.023 156.209 257.554 156.086C257.554 156.084 259.791 142.201 259.432 138.804C259.431 138.806 257.035 141.629 251.966 142.525C251.721 142.569 251.48 142.605 251.241 142.634C246.557 143.202 243.268 141.055 241.732 139.583C241.73 139.587 236.736 152.592 227.052 154.226C227.052 154.226 226.957 154.246 226.784 154.267C225.416 154.433 219.149 154.65 216.033 145.374C215.442 143.612 215.12 141.772 215.049 139.914C214.904 136.103 214.524 127.923 213.865 125.704C213.277 123.726 212.836 123.223 212.052 123.318C211.943 123.331 211.826 123.357 211.702 123.39C210.942 123.6 210.276 124.06 209.793 124.682C208.402 126.477 205.732 131.257 205.259 141.857C205.259 141.857 204.391 148.685 205.991 154.745C205.991 154.745 208.039 160.038 204.761 160.736C204.761 160.736 204.718 160.745 204.637 160.755C203.752 160.862 198.346 161.05 194.776 150.365C194.774 150.373 188.518 167.787 174.603 170.809C174.603 170.809 174.327 170.877 173.844 170.936C171.926 171.168 166.761 171.238 162.846 166.179C162.845 166.183 159.518 179.259 149.963 180.927C149.963 180.927 149.498 181.101 148.715 181.196C146.864 181.42 143.239 181.199 139.8 177.177C139.799 177.18 134.295 187.795 127.327 188.973C127.327 188.973 126.881 189.101 126.133 189.192C122.371 189.648 110.973 189.15 110.189 166.594C110.189 166.594 106.99 136.13 113.421 134.152C113.421 134.152 114.115 133.929 115.212 133.796C116.62 133.625 118.69 133.604 120.804 134.399C121.08 134.503 121.359 134.599 121.637 134.694C122.821 135.096 126.122 136.503 126.364 139.748C126.658 143.708 121.499 166.26 123.658 177.807C123.658 177.807 124.552 183.052 127.688 182.672C127.823 182.655 127.962 182.628 128.105 182.591C131.387 181.72 134.965 176.872 135.872 171.039C135.969 170.409 135.975 169.767 135.9 169.133C135.5 165.743 134.07 153.342 133.981 148.489C133.915 144.925 133.882 136.374 135.831 130.381C136.899 127.098 139.765 124.853 143.023 124.459C144.012 124.339 145.037 124.389 146.058 124.633C148.271 125.16 150.696 126.114 151.721 127.832C153.817 131.347 149.947 142.166 149.716 145.385C149.485 148.604 147.638 164.599 148.552 168.306C149.427 171.855 150.473 173.579 152.205 173.369C152.281 173.36 152.359 173.346 152.439 173.329C154.312 172.931 158.541 167.521 159.831 160.664C159.831 160.663 157.233 148.782 157.677 140.826C158.12 132.869 161.227 113.314 175.555 110.205C175.555 110.205 175.809 110.146 176.245 110.093C178.674 109.798 186.749 109.716 188.084 121.314C188.084 121.314 190.012 134.069 184.827 135.294C184.827 135.294 184.689 135.35 184.475 135.376C183.843 135.453 182.542 135.264 182.106 132.581C182.106 132.581 183.295 126.111 182.133 121.239C182.133 121.239 180.858 115.842 178.948 116.065C178.948 116.065 173.173 116.959 172.537 138.06C172.537 138.06 172.506 148.947 173.938 154.797C173.938 154.797 175.346 161.669 178.79 161.251C178.853 161.244 178.916 161.234 178.981 161.221C178.981 161.221 187.221 159.407 192.727 137.33C192.727 137.329 191.421 104.269 191.463 101.883C191.461 101.884 186.411 103.296 179.851 104.092C173.364 104.878 165.4 105.06 159.385 102.674C159.385 102.674 138.124 97.3845 132.432 79.0313C132.432 79.0313 128.363 69.7186 137.928 60.0648C137.928 60.0648 142.02 56.5026 145.454 56.0868C146.755 55.9291 147.962 56.2232 148.815 57.3327C149.374 58.0599 149.637 58.9716 149.589 59.8869C149.46 62.3562 149.215 69.6357 150.494 74.2132C150.494 74.2132 157.816 98.1929 183.733 97.4938C183.733 97.4938 188.314 96.8845 191.594 95.3336C191.594 95.3314 192.528 65.0262 193.196 60.1301C193.864 55.234 193.5 39.7695 203.647 37.4278C203.65 37.4284 203.678 37.424 203.733 37.4174ZM206.972 82.7991C206.989 82.7719 222.553 58.0808 206.679 43.3058L206.972 82.7991ZM203.486 229.74C206.042 229.43 209.254 228.179 213.252 225.728C245.391 206.031 256.437 161.753 256.438 161.747C255.305 161.827 254.179 161.936 253.061 162.071C240.713 163.568 229.341 168.319 220.313 173.319C204.848 181.884 194.954 197.898 194.46 215.513C194.227 223.866 196.197 230.623 203.486 229.74ZM203.483 35.3555C203.4 35.3656 203.344 35.374 203.318 35.3781C203.272 35.3858 203.226 35.3945 203.181 35.4051C200.719 35.9736 198.605 37.2295 196.896 39.138C195.503 40.6946 194.363 42.7178 193.509 45.1504C192.027 49.3738 191.634 54.1643 191.375 57.3345C191.292 58.3457 191.221 59.2195 191.134 59.8529C190.536 64.2353 189.747 87.9597 189.556 93.9404C187.047 94.8801 184.143 95.3363 183.565 95.421C180.686 95.4901 177.913 95.2359 175.319 94.6665C172.944 94.1447 170.664 93.3463 168.541 92.2924C164.96 90.5151 161.745 87.9827 158.984 84.7655C154.391 79.4136 152.615 73.9921 152.499 73.627C151.3 69.2977 151.566 62.1004 151.676 59.9938C151.751 58.5673 151.324 57.1734 150.475 56.0691C149.814 55.2093 148.973 54.6036 147.976 54.2673C147.14 53.9853 146.209 53.9041 145.208 54.0255C143.465 54.2368 141.468 55.0664 139.271 56.4923C138.619 56.9155 137.97 57.3776 137.342 57.8663C136.819 58.2734 136.58 58.4797 136.449 58.6075L136.449 58.607C134.084 60.9943 132.292 63.5762 131.123 66.2819C130.172 68.4836 129.63 70.7659 129.514 73.0662C129.431 74.7207 129.565 76.3421 129.915 77.885C130.027 78.3793 130.158 78.8478 130.304 79.2783C130.366 79.4632 130.421 79.6172 130.476 79.7507C131.868 84.1862 134.231 88.2598 137.498 91.8597C140.106 94.7321 143.29 97.3064 146.962 99.5114C152.708 102.96 157.812 104.408 158.738 104.654C161.678 105.799 165.248 106.471 169.352 106.649C172.613 106.791 176.231 106.625 180.104 106.155C183.933 105.691 187.271 105.018 189.436 104.525C189.533 107.891 189.745 113.811 189.965 119.71C189.257 115.538 187.597 112.403 185.021 110.38C183.535 109.213 181.785 108.452 179.822 108.121C178.249 107.855 176.875 107.926 175.999 108.032C175.525 108.089 175.208 108.156 175.107 108.179C171.368 108.993 168.063 110.865 165.282 113.745C162.985 116.123 161.035 119.204 159.489 122.902C156.472 130.115 155.764 137.762 155.599 140.714C155.189 148.077 157.238 158.43 157.707 160.682C157.179 163.219 156.15 165.804 154.79 168.003C154.204 168.951 153.578 169.79 152.98 170.427C152.427 171.016 152.088 171.234 151.97 171.3C151.894 171.23 151.716 171.032 151.48 170.542C151.174 169.909 150.872 168.99 150.581 167.81C150.431 167.202 150.232 165.336 150.587 159.669C150.824 155.884 151.216 151.796 151.502 148.811C151.642 147.35 151.753 146.196 151.8 145.532C151.858 144.735 152.258 143.07 152.682 141.309C153.246 138.969 153.884 136.317 154.214 133.832C154.65 130.541 154.429 128.298 153.518 126.77C152.366 124.838 150.021 123.44 146.55 122.613C145.308 122.317 144.039 122.245 142.778 122.397C140.768 122.641 138.872 123.447 137.294 124.728C135.685 126.034 134.495 127.769 133.852 129.743C132.409 134.18 131.753 140.501 131.9 148.53C131.991 153.443 133.402 165.73 133.833 169.378C133.888 169.842 133.882 170.295 133.815 170.724C133.434 173.174 132.494 175.58 131.166 177.499C130.035 179.134 128.692 180.288 127.574 180.584C127.526 180.597 127.482 180.606 127.441 180.611C127.352 180.622 127.261 180.633 127.078 180.481C126.945 180.369 126.675 180.09 126.376 179.475C125.911 178.521 125.718 177.469 125.716 177.459C125.714 177.448 125.712 177.438 125.71 177.426C124.312 169.947 126.194 157.163 127.438 148.703C128.174 143.707 128.552 141.034 128.445 139.594C128.299 137.633 127.339 135.885 125.668 134.54C124.411 133.529 123.027 132.971 122.314 132.729C122.065 132.645 121.8 132.553 121.544 132.457C119.017 131.507 116.571 131.54 114.964 131.734C113.773 131.879 112.964 132.12 112.804 132.17C111.483 132.578 110.4 133.586 109.584 135.166C108.984 136.327 108.518 137.799 108.158 139.666C107.598 142.568 107.313 146.42 107.311 151.116C107.307 158.505 108.011 165.761 108.11 166.736C108.475 176.939 111.011 184.117 115.651 188.069C117.422 189.577 119.463 190.582 121.717 191.055C123.629 191.456 125.311 191.385 126.385 191.255C127.063 191.173 127.549 191.062 127.776 191.004C129.677 190.663 131.601 189.744 133.498 188.272C134.95 187.145 136.4 185.684 137.807 183.93C138.79 182.704 139.614 181.509 140.243 180.525C141.47 181.531 142.788 182.275 144.184 182.746C146.149 183.411 147.87 183.391 148.968 183.258C149.671 183.173 150.197 183.033 150.479 182.945C152.985 182.477 155.31 181.31 157.39 179.474C159.023 178.035 160.504 176.183 161.793 173.971C162.607 172.573 163.242 171.203 163.719 170.034C164.069 170.315 164.429 170.578 164.798 170.822C165.945 171.576 167.194 172.153 168.512 172.536C170.8 173.199 172.812 173.153 174.096 172.997C174.605 172.936 174.947 172.862 175.07 172.833C178.558 172.071 181.879 170.43 184.942 167.952C187.344 166.008 189.591 163.549 191.621 160.641C192.885 158.831 193.908 157.065 194.699 155.553C196.063 158.149 197.688 160.085 199.554 161.331C201.99 162.96 204.097 162.912 204.889 162.816C205.032 162.798 205.136 162.779 205.197 162.767C206.487 162.492 207.487 161.762 208.091 160.655C208.72 159.5 208.87 157.995 208.538 156.181C208.361 155.217 208.094 154.423 207.985 154.121C206.545 148.562 207.322 142.179 207.33 142.115C207.337 142.059 207.342 142.003 207.344 141.947C207.802 131.696 210.365 127.344 211.446 125.949C211.516 125.859 211.595 125.776 211.68 125.703C211.736 125.864 211.798 126.058 211.868 126.294C212.278 127.673 212.7 132.923 212.969 139.994C213.048 142.085 213.415 144.117 214.059 146.033C214.856 148.408 215.92 150.42 217.22 152.011C218.347 153.39 219.657 154.466 221.115 155.21C223.742 156.549 226.131 156.438 227.036 156.328C227.218 156.306 227.351 156.283 227.43 156.268C229.979 155.832 232.435 154.69 234.729 152.874C236.502 151.47 238.184 149.659 239.725 147.492C240.953 145.767 241.893 144.099 242.548 142.806C243.124 143.155 243.781 143.496 244.519 143.795C246.714 144.687 249.06 144.989 251.493 144.694C251.769 144.661 252.051 144.619 252.33 144.569C254.053 144.265 255.706 143.717 257.194 142.964C257.071 144.306 256.874 146.074 256.568 148.401C256.27 150.662 255.956 152.781 255.745 154.159C254.762 154.252 253.778 154.359 252.805 154.477C246.57 155.232 240.399 156.507 234.466 158.266C229.715 159.675 225.103 161.396 220.758 163.38C216.88 165.151 213.932 166.812 212.141 167.893C210.615 168.816 209.591 169.518 209.165 169.827C197.33 177.115 187.879 185.694 181.073 195.327C178.358 199.17 176.058 203.197 174.24 207.295C172.764 210.62 171.595 214.008 170.768 217.366C170.155 219.846 169.953 222.391 170.166 224.927C170.374 227.409 170.974 229.828 171.948 232.116C172.927 234.412 174.257 236.519 175.904 238.378C177.597 240.289 179.587 241.895 181.819 243.151C186.539 245.809 192.1 246.772 198.348 246.014C201.993 245.572 205.901 244.537 209.963 242.937C213.176 241.671 216.497 240.049 219.834 238.116C225.366 234.91 229.051 231.952 229.371 231.693C238.9 224.238 247.114 216.086 253.783 207.464C259.139 200.541 263.518 193.299 266.799 185.94C268.091 183.04 269.215 180.113 270.138 177.243C270.879 174.938 271.494 172.662 271.965 170.477C272.213 169.326 272.396 168.32 272.53 167.473C273.455 167.966 274.231 168.425 274.919 168.885C276.262 169.783 277.311 170.709 278.218 171.801C280.059 174.015 281.494 177.086 283.339 182.755C284.17 185.309 284.556 187.99 284.486 190.723C284.421 193.235 283.98 195.689 283.173 198.017C281.712 202.235 279.158 205.566 276.507 206.713C273.593 207.972 271.882 209.123 270.958 210.447C270.46 211.16 270.19 211.936 270.156 212.753C270.128 213.428 270.264 214.011 270.401 214.492C270.9 216.248 271.735 217.751 272.882 218.962C273.899 220.033 275.155 220.87 276.618 221.449C277.826 221.927 279.172 222.229 280.62 222.347C281.802 222.442 283.026 222.415 284.26 222.266C285.151 222.158 286.021 221.987 286.775 221.771C287.678 221.513 289.503 220.899 291.575 219.685C294.091 218.21 296.239 216.301 297.962 214.012C300.211 211.023 301.687 207.433 302.348 203.342C302.725 201.016 302.84 198.496 302.69 195.851C302.53 193.014 302.061 189.957 301.297 186.768C299.832 180.66 297.396 175.2 294.055 170.541C291.371 166.797 288.104 163.564 284.345 160.932C280.129 157.98 276.262 156.456 274.028 155.743C275.235 148.737 276.061 137.749 276.487 123.026C276.868 109.861 276.842 96.6786 276.827 89.5968C276.822 86.9257 276.818 84.9957 276.837 84.2104C276.878 82.5154 276.722 81.0772 276.361 79.8128C275.927 78.2963 275.191 77.0607 274.174 76.141C272.454 74.5859 270.019 73.9873 266.936 74.3611C266.752 74.3833 266.563 74.4095 266.373 74.4387C263.195 74.9296 261.067 75.8211 259.675 77.2447C258.329 78.6208 257.965 80.2021 257.672 81.4725C257.644 81.5973 257.615 81.7221 257.585 81.8471C257.291 83.0858 257.398 86.7539 257.781 96.9209C258.13 106.18 258.563 117.704 258.191 123.686C257.893 128.458 256.57 130.978 255.512 132.251C254.483 133.49 253.538 133.781 253.442 133.809C253.282 133.845 253.127 133.9 252.98 133.972C252.666 134.128 252.458 134.177 252.339 134.192C252.198 134.209 252.151 134.194 252.042 134.096C251.801 133.879 250.978 132.883 250.526 129.188C250.251 126.938 250.152 124.043 250.225 120.337C250.379 112.434 253.535 91.5776 253.567 91.3677C253.567 91.3651 253.568 91.3619 253.568 91.3592C253.589 91.2117 253.595 91.0624 253.585 90.9141C253.51 89.8331 253.245 88.8266 252.796 87.9233C252.383 87.0905 251.812 86.3411 251.1 85.6963C249.981 84.6828 248.511 83.9212 246.73 83.4331C243.906 82.6587 241.179 82.8225 241.064 82.8296C241.061 82.83 241.059 82.8298 241.055 82.8302C240.857 82.8438 240.658 82.8626 240.467 82.8859C238.342 83.1435 236.6 84.0043 235.291 85.4445C234.143 86.7066 233.331 88.4003 232.807 90.6219C232.389 92.3976 232.143 94.5337 232.032 97.3438C231.937 99.7896 231.952 102.507 231.98 105.548C232.007 108.464 232.245 111.825 232.686 115.54C233.037 118.494 233.518 121.681 234.114 125.012C234.927 129.553 235.729 133.099 236.038 134.42C234.903 138.126 233.746 140.796 232.595 142.362C231.617 143.694 230.984 143.771 230.746 143.8C230.695 143.806 230.643 143.81 230.587 143.812C230.463 143.702 230.198 143.387 229.991 142.773C229.75 142.058 229.702 141.264 229.86 140.595C230.464 138.042 230.776 135.028 230.79 131.637C230.801 128.845 230.612 126.365 230.486 124.725C230.471 124.525 230.457 124.337 230.444 124.162C230.281 121.949 229.719 119.848 228.774 117.917C228.142 116.624 227.388 115.511 226.532 114.61C225.401 113.418 224.093 112.594 222.647 112.16C220.751 111.592 218.809 111.423 216.875 111.657C216.219 111.737 215.561 111.864 214.906 112.038C215.249 111.531 215.597 111.046 215.948 110.584C217.225 108.905 218.558 107.517 219.911 106.455C222.249 104.623 223.992 104.292 224.471 104.234C224.532 104.226 224.575 104.223 224.6 104.221C224.667 104.225 224.67 104.221 224.753 104.216C225.127 104.192 225.489 104.159 225.83 104.118C227.092 103.965 228.12 103.696 228.974 103.296C229.851 102.885 230.534 102.334 231.004 101.656C231.455 101.007 231.702 100.241 231.719 99.4426C231.731 98.8438 231.615 98.3699 231.559 98.1418L231.557 98.1342C231.247 96.872 230.388 94.7313 228.987 92.8503C227.068 90.2727 224.605 88.7731 221.865 88.5138C221.518 88.481 221.161 88.486 220.805 88.5292C220.805 88.5293 220.804 88.5294 220.803 88.5294C218.859 88.7651 216.873 90.1111 214.733 92.6437C213.238 94.4129 211.639 96.7978 209.981 99.7322C209.565 100.469 209.166 101.202 208.788 101.918C208.785 101.555 208.781 101.175 208.778 100.779C208.754 97.7522 208.751 94.8686 208.751 93.4575C212.079 90.2991 214.774 86.6364 216.768 82.5586C218.528 78.9607 219.756 75.0135 220.42 70.8265C221.597 63.3999 220.691 57.1147 220.246 54.7574C220.116 54.0696 219.988 53.3293 219.854 52.4951C219.21 48.4742 218.053 45.0797 216.415 42.4068C215.024 40.1345 213.281 38.3655 211.236 37.1484C209.702 36.2355 208.034 35.6505 206.28 35.4107C204.901 35.2223 203.864 35.3093 203.483 35.3555ZM208.99 73.8034L208.808 49.1542C209.013 49.4918 209.207 49.8344 209.389 50.1821C210.326 51.9661 210.99 53.9286 211.362 56.0165C212.003 59.61 211.807 63.6455 210.779 68.0104C210.439 69.4533 209.881 71.4494 208.99 73.8034ZM174.625 138.092C174.751 133.953 175.089 130.319 175.631 127.29C176.068 124.842 176.638 122.786 177.323 121.179C177.935 119.744 178.518 118.952 178.925 118.525C179.097 118.825 179.317 119.279 179.564 119.953C179.905 120.882 180.104 121.709 180.106 121.717C180.106 121.718 180.107 121.72 180.107 121.721C181.145 126.073 180.082 132.076 180.058 132.208C180.015 132.442 180.013 132.681 180.051 132.915C180.325 134.6 180.947 135.848 181.901 136.623C182.7 137.273 183.704 137.563 184.728 137.439C185.019 137.403 185.258 137.341 185.428 137.286C186.71 136.951 188.407 135.994 189.462 133.362C189.876 132.329 190.17 131.088 190.342 129.656C190.485 133.341 190.596 136.178 190.634 137.119C189.427 141.902 187.993 146.065 186.373 149.495C185.083 152.225 183.681 154.484 182.206 156.209C180.968 157.656 179.934 158.425 179.283 158.815C178.963 159.007 178.727 159.113 178.586 159.169C178.56 159.179 178.539 159.187 178.522 159.193C178.451 159.199 178.305 159.186 178.022 158.917C177.776 158.683 177.393 158.213 176.964 157.3C176.305 155.897 175.987 154.396 175.984 154.381C175.979 154.356 175.973 154.33 175.967 154.305C174.643 148.898 174.625 138.687 174.625 138.092ZM178.56 159.188C178.588 159.182 178.615 159.176 178.643 159.171C178.623 159.176 178.603 159.18 178.583 159.184C178.576 159.186 178.568 159.187 178.56 159.188ZM203.236 227.678C201.472 227.892 200.135 227.56 199.149 226.666C197.289 224.978 196.389 221.141 196.545 215.569C196.662 211.408 197.329 207.277 198.531 203.289C199.711 199.371 201.4 195.608 203.551 192.105C205.699 188.608 208.294 185.391 211.264 182.544C214.277 179.656 217.663 177.163 221.325 175.135C226.267 172.398 231.256 170.11 236.154 168.334C241.982 166.22 247.755 164.807 253.311 164.134C253.409 164.122 253.507 164.11 253.605 164.099C253.256 165.248 252.791 166.708 252.201 168.412C250.814 172.424 248.434 178.652 244.978 185.536C241.109 193.242 236.704 200.189 231.887 206.182C229.04 209.723 226.016 212.966 222.898 215.821C219.482 218.949 215.87 221.687 212.161 223.96C208.604 226.14 205.601 227.391 203.236 227.678Z" fill="white"/>
</g>
<path d="M198.224 244.985C192.203 245.715 186.856 244.794 182.333 242.248C180.203 241.049 178.303 239.515 176.687 237.691C175.115 235.916 173.844 233.904 172.909 231.711C171.978 229.524 171.405 227.212 171.206 224.841C171.003 222.416 171.196 219.985 171.781 217.613C172.595 214.315 173.743 210.985 175.195 207.715C176.986 203.68 179.251 199.713 181.927 195.925C188.661 186.394 198.027 177.9 209.767 170.679C210.513 170.143 214.502 167.381 221.192 164.326C225.493 162.361 230.059 160.658 234.763 159.264C240.641 157.521 246.753 156.258 252.93 155.509C254.161 155.36 255.41 155.229 256.654 155.12C257.2 151.637 258.175 144.857 258.39 141.047C257.056 141.968 254.987 143.047 252.149 143.548C251.889 143.594 251.627 143.633 251.368 143.665C247.031 144.191 243.895 142.582 242.134 141.276C241.525 142.586 240.432 144.709 238.859 146.915C237.375 148.997 235.763 150.732 234.069 152.072C231.913 153.776 229.617 154.844 227.242 155.247C227.19 155.257 227.076 155.278 226.91 155.298C226.1 155.396 223.96 155.494 221.59 154.286C220.262 153.609 219.063 152.623 218.028 151.356C216.807 149.862 215.804 147.96 215.046 145.704C214.434 143.881 214.085 141.947 214.009 139.955C213.733 132.695 213.306 127.478 212.867 125.999C212.509 124.796 212.284 124.447 212.193 124.348C212.189 124.348 212.183 124.349 212.178 124.35C212.126 124.356 212.06 124.37 211.98 124.392C211.452 124.538 210.969 124.865 210.619 125.316C209.976 126.148 209.028 127.685 208.173 130.29C207.134 133.459 206.504 137.366 206.301 141.903C206.3 141.931 206.298 141.959 206.294 141.986C206.286 142.053 205.48 148.663 206.986 154.429C207.199 154.999 208.279 158.132 207.173 160.161C206.72 160.993 205.961 161.543 204.978 161.752C204.952 161.758 204.877 161.773 204.763 161.787C203.688 161.917 198.499 162.038 194.721 153.167C193.902 154.925 192.59 157.438 190.748 160.073C188.775 162.896 186.595 165.28 184.271 167.158C181.337 169.529 178.163 171.098 174.836 171.822C174.754 171.842 174.448 171.91 173.969 171.968C172.997 172.086 171.033 172.187 168.802 171.54C166.714 170.934 164.865 169.832 163.285 168.253C162.813 169.582 162.034 171.49 160.879 173.468C159.647 175.58 158.237 177.342 156.69 178.706C154.736 180.427 152.559 181.514 150.219 181.937C149.966 182.021 149.489 182.15 148.841 182.229C146.962 182.456 143.456 182.28 140.009 178.923C139.37 179.994 138.331 181.614 136.991 183.284C135.636 184.974 134.244 186.377 132.856 187.454C131.082 188.831 129.298 189.684 127.553 189.99C127.389 190.033 126.93 190.143 126.259 190.225C124.142 190.481 120.037 190.44 116.328 187.28C111.914 183.52 109.499 176.585 109.15 166.667C109.078 165.967 108.348 158.618 108.352 151.117C108.355 146.486 108.634 142.699 109.181 139.862C109.938 135.936 111.225 133.744 113.114 133.162C113.22 133.129 113.971 132.902 115.088 132.766C116.58 132.585 118.847 132.554 121.175 133.429C121.442 133.529 121.718 133.624 121.977 133.712C122.625 133.932 123.88 134.438 125.012 135.349C126.453 136.509 127.281 138.005 127.405 139.672C127.509 141.065 127.046 144.207 126.406 148.554C125.151 157.082 123.254 169.969 124.685 177.618C124.686 177.624 124.686 177.629 124.688 177.634C124.69 177.645 124.902 178.847 125.453 179.962C126.351 181.782 127.259 181.68 127.562 181.643C127.563 181.643 127.564 181.643 127.565 181.643C127.654 181.632 127.746 181.614 127.84 181.589C129.212 181.225 130.736 179.949 132.023 178.088C133.438 176.043 134.439 173.484 134.844 170.883C134.925 170.361 134.933 169.814 134.867 169.257C134.437 165.621 133.031 153.377 132.941 148.511C132.796 140.598 133.435 134.391 134.843 130.063C136.006 126.486 139.169 123.882 142.902 123.43C144.039 123.292 145.184 123.357 146.305 123.624C149.493 124.383 151.618 125.621 152.621 127.302C153.406 128.619 153.583 130.651 153.179 133.698C152.857 136.129 152.225 138.753 151.668 141.068C151.214 142.951 150.823 144.577 150.759 145.459C150.713 146.111 150.603 147.259 150.463 148.714C149.948 154.084 148.877 165.259 149.567 168.059C150.664 172.512 151.695 172.387 152.082 172.34C152.128 172.334 152.176 172.326 152.225 172.316C152.615 172.233 153.924 171.279 155.479 168.861C157.04 166.432 158.205 163.534 158.77 160.677C158.389 158.888 156.223 148.231 156.639 140.772C156.8 137.873 157.495 130.366 160.449 123.301C161.946 119.723 163.824 116.75 166.031 114.465C168.666 111.735 171.794 109.962 175.328 109.194C175.391 109.179 175.675 109.118 176.122 109.064C177.564 108.889 181.254 108.747 184.374 111.197C186.994 113.255 188.591 116.614 189.119 121.179C189.163 121.473 189.607 124.585 189.442 127.897C189.34 129.952 189.02 131.662 188.493 132.979C187.763 134.801 186.631 135.915 185.129 136.292C185.02 136.329 184.835 136.381 184.602 136.409C183.928 136.491 181.683 136.469 181.079 132.75C181.065 132.661 181.062 132.571 181.071 132.482C181.074 132.454 181.078 132.426 181.083 132.398C181.094 132.335 182.216 126.074 181.12 121.482C181.117 121.469 180.842 120.319 180.374 119.158C179.775 117.676 179.27 117.193 179.091 117.111C178.481 117.378 174.131 119.922 173.582 138.078C173.581 138.517 173.589 148.984 174.953 154.553C174.956 154.566 174.959 154.578 174.962 154.591C174.964 154.606 175.306 156.236 176.032 157.771C176.598 158.966 177.514 160.363 178.667 160.223C178.697 160.219 178.726 160.215 178.756 160.209C178.928 160.159 180.778 159.566 183.202 156.642C184.708 154.826 186.131 152.486 187.433 149.689C189.05 146.213 190.479 142.021 191.682 137.227C191.586 134.885 190.6 109.651 190.444 103.222C188.516 103.696 184.634 104.562 179.98 105.126C176.163 105.589 172.602 105.753 169.398 105.613C165.384 105.439 161.907 104.784 159.064 103.666C158.383 103.489 153.266 102.088 147.481 98.6111C143.9 96.4589 140.798 93.9498 138.262 91.1541C135.089 87.6548 132.798 83.6963 131.454 79.3883C131.285 78.9752 130.38 76.5755 130.556 73.1124C130.667 70.9368 131.18 68.7761 132.083 66.6896C133.2 64.1047 134.918 61.6316 137.191 59.3388C137.209 59.3203 137.228 59.3029 137.247 59.2859C137.424 59.1321 141.63 55.508 145.333 55.059C147.158 54.8378 148.649 55.4065 149.646 56.7041C150.345 57.6126 150.696 58.7632 150.634 59.9438C150.522 62.092 150.252 69.4441 151.498 73.923C151.583 74.192 153.441 79.9341 158.242 85.5035C161.094 88.8117 164.417 91.4173 168.118 93.2464C172.727 95.5246 177.953 96.6061 183.652 96.4607C184.126 96.3927 187.733 95.8509 190.576 94.6557C190.719 90.1093 191.548 64.5289 192.167 59.995C192.257 59.3333 192.33 58.4474 192.414 57.4209C192.684 54.1176 193.055 49.5928 194.494 45.4955C196.273 40.4292 199.274 37.3758 203.417 36.4201L203.417 36.4211C203.49 36.4038 203.556 36.3959 203.608 36.3895C204.207 36.3169 207.362 36.0558 210.703 38.0441C212.602 39.1738 214.225 40.8254 215.528 42.9521C217.094 45.5093 218.204 48.7765 218.827 52.663C218.962 53.507 219.092 54.256 219.223 54.9535C219.658 57.2581 220.544 63.4026 219.392 70.6692C218.745 74.7548 217.547 78.6036 215.833 82.1081C213.829 86.2054 211.098 89.8725 207.711 93.0134C207.706 95.9958 207.722 102.032 207.81 106.203C208.633 104.477 209.691 102.371 210.896 100.239C212.521 97.363 214.082 95.033 215.535 93.3144C217.497 90.9932 219.263 89.7665 220.932 89.5642C221.213 89.53 221.494 89.5258 221.767 89.5518C227.318 90.0766 229.986 96.107 230.547 98.3859L230.549 98.3935C230.643 98.777 230.93 99.9447 230.149 101.07C229.394 102.159 227.941 102.82 225.707 103.091C225.386 103.129 225.044 103.161 224.691 103.183C224.664 103.185 224.639 103.185 224.613 103.185C224.603 103.185 224.511 103.186 224.348 103.206C223.648 103.291 221.75 103.698 219.269 105.643C216.816 107.566 214.518 110.397 212.412 114.084C213.673 113.461 215.225 112.907 217.002 112.691C218.792 112.474 220.59 112.631 222.347 113.158C224.601 113.833 226.499 115.637 227.839 118.376C228.725 120.188 229.253 122.162 229.406 124.243C229.419 124.418 229.433 124.607 229.449 124.809C229.693 128.001 230.199 134.643 228.847 140.361C228.496 141.848 228.97 143.465 229.619 144.294C229.896 144.647 230.193 144.852 230.434 144.856C230.592 144.858 230.736 144.851 230.873 144.834C231.44 144.765 232.322 144.498 233.439 142.979C234.686 141.281 235.924 138.415 237.119 134.457C236.59 132.217 233.132 117.146 233.025 105.542C232.964 98.9825 232.987 94.4167 233.824 90.8627C234.306 88.8167 235.039 87.2742 236.065 86.1456C237.201 84.8959 238.725 84.1474 240.594 83.9207C240.767 83.8997 240.947 83.8826 241.128 83.8701C241.24 83.8628 243.797 83.7097 246.454 84.4378C248.076 84.8824 249.403 85.5657 250.4 86.4685C251.699 87.6447 252.421 89.1661 252.547 90.9902C252.552 91.0572 252.55 91.1243 252.542 91.1907C252.541 91.1992 252.539 91.2088 252.538 91.2173C252.506 91.4278 249.341 112.366 249.185 120.322C249.111 124.076 249.212 127.019 249.494 129.318C249.936 132.927 250.745 134.33 251.346 134.871C251.679 135.17 252.024 135.279 252.466 135.226C252.756 135.191 253.086 135.083 253.444 134.906C253.522 134.868 253.604 134.839 253.689 134.821C253.764 134.803 254.926 134.509 256.182 133.074C257.395 131.688 258.91 128.945 259.233 123.753C259.609 117.719 259.174 106.167 258.825 96.8843C258.489 87.9586 258.327 83.2468 258.602 82.0894C258.632 81.9618 258.662 81.8348 258.691 81.7072C258.968 80.5036 259.282 79.1396 260.424 77.9724C261.65 76.7191 263.592 75.9229 266.534 75.4684C266.713 75.441 266.89 75.4163 267.063 75.3954C269.832 75.0596 271.99 75.5706 273.475 76.9141C274.346 77.7018 274.981 78.774 275.36 80.1021C275.688 81.248 275.835 82.6231 275.797 84.1901C275.778 84.9885 275.781 86.9243 275.787 89.6032C275.815 103.551 275.889 140.142 272.841 156.473C274.722 157.003 279.005 158.464 283.754 161.791C287.415 164.355 290.597 167.505 293.211 171.153C296.472 175.702 298.852 181.038 300.284 187.014C301.731 193.049 302.079 198.488 301.32 203.181C300.686 207.105 299.276 210.54 297.129 213.393C293.372 218.388 288.437 220.221 286.49 220.777C285.788 220.978 284.974 221.137 284.137 221.239L284.136 221.239C282.307 221.46 279.586 221.51 277.006 220.488C275.685 219.965 274.553 219.213 273.642 218.252C272.611 217.165 271.858 215.805 271.406 214.213C271.237 213.617 270.884 212.376 271.815 211.043C272.611 209.903 274.234 208.831 276.922 207.669C278.334 207.059 279.741 205.898 280.991 204.311C282.283 202.673 283.378 200.615 284.159 198.359C285.939 193.22 286 187.565 284.331 182.437C282.442 176.633 280.954 173.466 279.022 171.142C277.184 168.93 274.895 167.46 271.708 165.884C271.341 168.884 270.078 176.039 265.833 185.553C262.584 192.832 258.248 199.999 252.944 206.852C246.328 215.401 238.179 223.486 228.721 230.884C228.48 231.079 224.837 234.019 219.311 237.221C216.019 239.128 212.746 240.727 209.58 241.974C205.602 243.54 201.782 244.554 198.224 244.985ZM253.186 163.103C247.551 163.786 241.701 165.218 235.798 167.358C230.848 169.153 225.809 171.464 220.819 174.227C213.373 178.351 207.095 184.346 202.662 191.564C198.215 198.805 195.74 207.096 195.503 215.541C195.423 218.39 195.614 220.827 196.071 222.784C196.562 224.884 197.361 226.449 198.447 227.434C199.671 228.544 201.278 228.961 203.362 228.709C205.876 228.404 209.021 227.103 212.708 224.844C219.927 220.42 226.662 214.349 232.724 206.801C237.59 200.743 242.036 193.725 245.939 185.943C251.219 175.415 254.072 166.293 255.043 162.904C254.424 162.962 253.804 163.028 253.186 163.103ZM207.984 78.7394C209.218 76.2099 210.779 72.5159 211.773 68.3355C212.847 63.8175 213.057 59.6276 212.397 55.8816C211.731 52.1043 210.168 48.7622 207.741 45.9152L207.984 78.7394Z" fill="white"/>
<path d="M42.0062 266.694C39.1763 265.769 36.7568 264.192 34.7478 261.965C32.7384 259.739 31.4051 257.087 30.7485 254.01C30.0786 250.871 30.1844 247.889 31.0668 245.064C31.9492 242.238 33.4738 239.847 35.6393 237.89C37.8047 235.933 40.4333 234.627 43.5228 233.969C45.1915 233.614 46.871 233.466 48.5629 233.524C50.2549 233.582 51.7512 233.859 53.052 234.354L53.3284 241.774C50.9266 241.418 48.8294 241.429 47.0384 241.81C44.5671 242.336 42.8195 243.456 41.7966 245.17C40.7736 246.883 40.5478 249.078 41.1197 251.756C41.6778 254.371 42.8162 256.26 44.5339 257.423C46.2516 258.585 48.3617 258.901 50.8641 258.368C51.8218 258.164 52.6975 257.882 53.4926 257.519C54.2878 257.157 55.2349 256.602 56.3349 255.853L59.1888 262.871C56.8362 265.012 54.0693 266.421 50.8871 267.098C47.7959 267.755 44.8361 267.62 42.0062 266.694Z" fill="#5C006A"/>
<path d="M62.9478 230.56L77.0351 227.563L93.0362 257.357L82.1459 259.674L79.641 253.837L71.3919 255.592L71.3488 261.971L60.9217 264.189L62.9478 230.56ZM77.3165 248.398L71.3386 235.145L71.1532 249.709L77.3165 248.398Z" fill="#5C006A"/>
<path d="M89.3144 224.95L98.6292 222.968L114.981 237.391L111.326 220.267L119.621 218.502L126.4 250.259L117.132 252.231L100.815 238.427L104.342 254.952L96.0945 256.707L89.3144 224.95Z" fill="#5C006A"/>
<path d="M165.839 343.428C161.86 342.134 158.463 339.904 155.65 336.737C152.836 333.571 150.934 329.813 149.942 325.462C148.99 321.284 149.121 317.222 150.336 313.278C151.552 309.332 153.723 305.94 156.851 303.1C159.979 300.261 163.835 298.321 168.419 297.28C170.927 296.71 173.423 296.438 175.907 296.462C178.391 296.487 180.703 296.8 182.841 297.401L180.842 308.388C177.627 307.851 174.744 307.871 172.193 308.45C168.862 309.207 166.533 310.857 165.202 313.402C163.871 315.946 163.6 318.941 164.386 322.387C164.896 324.626 165.766 326.547 166.995 328.147C168.224 329.749 169.702 330.896 171.429 331.592C173.156 332.287 174.972 332.418 176.875 331.985C177.913 331.749 178.757 331.467 179.411 331.137L177.04 320.735L187.967 316.896L192.576 337.117C188.2 340.468 183.46 342.722 178.358 343.88C173.991 344.871 169.818 344.721 165.839 343.428Z" fill="#5C006A"/>
<path d="M189.98 293.402L221.308 286.287L223.547 296.108L207.98 299.643L209.821 307.719L224.026 304.493L225.881 312.634L211.676 315.86L213.635 324.452L229.202 320.917L231.44 330.737L200.112 337.852L189.98 293.402Z" fill="#5C006A"/>
<path d="M237.751 292.882L228.476 294.988L226.237 285.167L259.901 277.522L262.14 287.343L252.865 289.449L260.757 324.079L245.644 327.512L237.751 292.882Z" fill="#5C006A"/>
<path d="M273.512 298.623C273.021 296.47 273.28 294.667 274.291 293.213C275.301 291.762 276.792 290.267 278.762 288.732C279.878 287.845 280.634 287.175 281.032 286.722C281.43 286.27 281.574 285.807 281.466 285.332C281.152 283.954 279.287 283.652 275.87 284.428C272.843 285.116 270.161 286.315 267.822 288.023L264.675 278.409C266.501 277.043 268.525 275.848 270.747 274.822C272.97 273.797 275.075 273.058 277.064 272.606C280.134 271.909 282.975 271.797 285.583 272.268C288.193 272.741 290.365 273.743 292.101 275.274C293.837 276.805 294.971 278.733 295.501 281.058C295.972 283.126 295.929 284.937 295.374 286.49C294.819 288.044 294.043 289.33 293.047 290.348C292.051 291.367 290.695 292.501 288.979 293.752C287.229 295.056 285.99 296.153 285.26 297.043C284.531 297.934 284.299 298.961 284.564 300.123L284.844 301.35L275.762 303.412C274.556 301.512 273.806 299.915 273.512 298.623ZM278.336 318.592C276.721 317.691 275.688 316.249 275.236 314.268C274.794 312.33 275.116 310.604 276.204 309.088C277.291 307.572 278.915 306.569 281.077 306.078C283.154 305.606 285.025 305.838 286.693 306.773C288.361 307.709 289.407 309.101 289.83 310.954C290.301 313.021 290.031 314.781 289.021 316.234C288.01 317.687 286.359 318.673 284.067 319.193C281.861 319.695 279.951 319.495 278.336 318.592Z" fill="#5C006A"/>
<g filter="url(#filter2_d)">
<path d="M113.87 85.9378C111.962 68.9737 96.2222 71.7737 96.2217 71.7738C91.4189 72.7954 87.2227 75.7144 84.6548 79.8863C78.2301 90.3226 78.6992 107.504 77.6402 116.868C76.2416 129.233 75.6406 155.081 75.6402 155.081C63.8628 168.131 52.5543 170.476 52.5543 170.476C37.1592 174.605 25.3373 157.921 25.3373 157.921C23.3881 154.953 21.8824 155.639 21.8824 155.639C19.3143 156.409 18.5435 161.953 18.3319 166.14C18.0893 170.943 19.5474 175.694 22.5449 179.461C27.4915 185.676 35.2551 187.691 44.9661 186.383C58.2295 184.597 75.233 167.084 75.2345 167.083C75.2347 167.085 75.3301 188.456 76.924 197.93C78.5178 207.403 84.9668 219.41 98.6026 217.362C112.239 215.313 117.285 198.82 117.572 194.432C117.859 190.043 115.616 189.86 114.022 190.128C112.663 190.356 112.39 191.17 112.366 191.222C105.651 205.683 105.036 205.936 101.691 206.891C96.6199 208.34 95.5114 200.588 95.5114 200.588C92.2553 187.628 96.1479 141.942 96.1478 141.941C107.502 126.909 115.778 102.902 113.87 85.9378ZM98.813 78.323C104.425 78.5306 106.186 84.1397 106.606 87.0261C108.771 101.894 96.7925 126.168 96.7898 126.172C97.5843 123.016 98.8131 78.324 98.813 78.323Z" fill="#EC008C"/>
</g>
<g filter="url(#filter3_d)">
<path d="M299.27 187.254C293.126 161.624 271.633 157.236 271.629 157.235C275.452 138.595 274.629 89.3099 274.755 84.1632C274.88 79.0169 272.971 75.5222 266.692 76.4922C260.413 77.4622 260.196 79.8855 259.615 82.3253C259.035 84.7651 260.95 112.942 260.273 123.813C259.595 134.684 253.905 135.834 253.905 135.834C248.48 138.511 247.982 128.439 248.141 120.299C248.301 112.159 251.506 91.0594 251.506 91.0589C251.036 84.2719 241.197 84.9025 241.197 84.9025C234.021 85.3934 233.954 93.392 234.066 105.527C234.182 118.007 238.197 134.482 238.197 134.482C235.127 144.787 232.424 145.917 230.418 145.89C228.665 145.866 227.207 142.763 227.832 140.119C229.229 134.211 228.587 127.314 228.366 124.315C228.225 122.411 227.741 120.544 226.901 118.827C225.964 116.91 224.437 114.865 222.046 114.148C214.896 112.005 209.619 117.21 209.609 117.221C216.817 101.974 224.624 102.142 224.624 102.142C230.329 101.781 229.692 99.2771 229.533 98.6291C229.078 96.7752 226.692 91.0562 221.667 90.5812C215.531 90.0009 206.974 110.581 206.97 110.591C206.639 108.467 206.668 92.5545 206.668 92.5534C221.61 79.0284 219.067 59.7504 218.198 55.1426C218.053 54.372 217.921 53.5987 217.797 52.8245C215.034 35.5864 203.651 37.4278 203.65 37.4279C193.503 39.7696 193.867 55.2341 193.2 60.1302C192.531 65.0263 191.597 95.3316 191.598 95.3336C188.319 96.8845 183.737 97.4938 183.737 97.4938C157.82 98.1929 150.498 74.2132 150.498 74.2132C149.219 69.6358 149.464 62.3562 149.593 59.887C149.641 58.9716 149.378 58.06 148.819 57.3327C145.712 53.2928 137.932 60.0648 137.932 60.0648C128.367 69.7187 132.435 79.0314 132.435 79.0314C138.128 97.3846 159.388 102.674 159.388 102.674C171.487 107.474 191.462 101.884 191.466 101.883C191.424 104.269 192.73 137.33 192.73 137.33C187.224 159.407 178.984 161.221 178.984 161.221C175.401 161.923 173.941 154.797 173.941 154.797C172.509 148.946 172.541 138.06 172.541 138.06C173.176 116.959 178.951 116.066 178.951 116.066C180.861 115.842 182.136 121.239 182.136 121.239C183.298 126.111 182.11 132.581 182.11 132.581C182.693 136.175 184.83 135.293 184.83 135.293C190.015 134.068 188.087 121.313 188.087 121.313C186.512 107.63 175.558 110.205 175.558 110.205C161.23 113.314 158.124 132.869 157.68 140.826C157.237 148.782 159.834 160.663 159.834 160.663C158.544 167.52 154.315 172.93 152.442 173.329C150.569 173.728 149.468 172.011 148.555 168.305C147.641 164.598 149.489 148.603 149.719 145.384C149.95 142.166 153.821 131.346 151.724 127.831C150.699 126.113 148.274 125.159 146.061 124.632C141.673 123.587 137.225 126.101 135.834 130.38C133.885 136.373 133.918 144.924 133.983 148.488C134.073 153.341 135.502 165.742 135.902 169.132C135.977 169.766 135.972 170.408 135.874 171.038C134.968 176.871 131.389 181.719 128.108 182.59C124.633 183.512 123.66 177.807 123.66 177.807C121.501 166.26 126.66 143.708 126.366 139.748C126.125 136.503 122.824 135.096 121.64 134.694C121.361 134.599 121.082 134.502 120.807 134.399C117.045 132.984 113.423 134.152 113.423 134.152C106.992 136.13 110.192 166.594 110.192 166.594C111.131 193.638 127.329 188.973 127.329 188.973C134.297 187.795 139.801 177.179 139.803 177.176C144.696 182.9 149.965 180.926 149.965 180.926C159.52 179.259 162.847 166.183 162.848 166.178C167.749 172.51 174.606 170.808 174.606 170.808C188.521 167.786 194.776 150.371 194.778 150.365C198.676 162.03 204.763 160.735 204.763 160.735C208.041 160.037 205.993 154.744 205.993 154.744C204.394 148.684 205.261 141.856 205.261 141.856C205.735 131.256 208.404 126.477 209.796 124.681C210.278 124.058 210.945 123.599 211.705 123.39C212.718 123.11 213.197 123.449 213.868 125.702C214.527 127.922 214.907 136.101 215.052 139.913C215.123 141.77 215.444 143.61 216.036 145.372C219.546 155.821 227.054 154.224 227.054 154.224C236.739 152.59 241.733 139.585 241.734 139.582C243.349 141.128 246.898 143.42 251.969 142.524C257.038 141.628 259.433 138.804 259.435 138.802C259.793 142.2 257.556 156.083 257.556 156.085C228.021 158.468 210.318 171.559 210.317 171.559C184.132 187.666 175.575 206.585 172.794 217.859C170.525 227.053 174.579 236.688 182.847 241.343C201.423 251.8 228.07 230.072 228.07 230.072C269.281 197.84 270.812 164.301 270.813 164.296C279.146 168.222 281.679 170.913 285.324 182.114C289.112 193.75 283.723 205.859 277.337 208.619C271.864 210.985 272.011 212.521 272.41 213.926C274.511 221.319 282.9 220.719 286.205 219.775C289.55 218.821 305.415 212.885 299.27 187.254ZM206.679 43.3057C222.56 58.0863 206.978 82.79 206.972 82.799L206.679 43.3057C206.679 43.3058 206.679 43.3057 206.679 43.3057ZM213.253 225.729C197.852 235.168 194.144 226.795 194.461 215.514C194.955 197.899 204.848 181.885 220.313 173.32C230.16 167.867 242.792 162.711 256.439 161.748C256.437 161.753 245.392 206.031 213.253 225.729Z" fill="#EC008C"/>
</g>
<path d="M202.929 250.603L194.931 213.14C194.553 211.369 195.688 209.627 197.466 209.248C199.117 208.897 200.743 209.846 201.268 211.402L210.571 192.069C205.459 189.358 199.395 188.359 193.285 189.659C179.514 192.589 170.724 206.084 173.653 219.8L180.208 250.506L202.929 250.603Z" fill="#5C006A"/>
<path d="M254.259 176.687L268.733 244.491C269.111 246.261 267.976 248.004 266.198 248.382C264.42 248.76 262.673 247.631 262.294 245.86L247.82 178.057L225.842 182.733L239.825 248.234C242.784 262.095 256.464 270.932 270.38 267.971C284.296 265.01 293.179 251.373 290.22 237.512L266.985 233.562L261.227 205.127L278.735 191.027L276.237 172.011L254.259 176.687Z" fill="#5C006A"/>
<path d="M75.0887 35.6157L85.005 33.5704L87.4956 45.6463L96.883 43.7101L94.3924 31.6343L104.353 29.5799L110.607 59.9017L100.646 61.956L98.192 50.0565L88.8046 51.9927L91.2589 63.8922L81.3426 65.9375L75.0887 35.6157Z" fill="#5C006A"/>
<path d="M131.199 56.3895C128.026 57.044 125.066 56.95 122.319 56.1075C119.602 55.2589 117.307 53.7871 115.435 51.692C113.587 49.5615 112.348 46.9684 111.717 43.9127C111.081 40.8277 111.19 37.9411 112.045 35.253C112.929 32.5589 114.454 30.2993 116.62 28.4742C118.809 26.6136 121.49 25.356 124.664 24.7015C127.837 24.047 130.782 24.1441 133.499 24.9927C136.24 25.8058 138.535 27.2776 140.383 29.4081C142.255 31.5032 143.512 34.108 144.155 37.2224C144.785 40.2781 144.658 43.153 143.774 45.8471C142.913 48.5058 141.388 50.7654 139.199 52.626C137.01 54.4866 134.343 55.7411 131.199 56.3895ZM129.545 48.3684C131.396 47.9866 132.761 46.9547 133.639 45.2726C134.547 43.5844 134.758 41.5651 134.273 39.2145C133.952 37.6573 133.388 36.3339 132.581 35.2444C131.798 34.1195 130.852 33.3191 129.743 32.8433C128.628 32.3382 127.453 32.2128 126.219 32.4674C125.015 32.7158 124 33.2926 123.176 34.1978C122.346 35.0735 121.794 36.1829 121.519 37.526C121.239 38.8398 121.259 40.2752 121.58 41.8325C122.065 44.183 123.044 45.9569 124.516 47.1542C125.988 48.3515 127.664 48.7562 129.545 48.3684Z" fill="#5C006A"/>
<path d="M142.787 21.6527L152.704 19.6074L159.559 38.3643L159.585 23.564L169.853 21.446L175.777 35.0192L174.652 15.0806L184.568 13.0353L183.946 44.7751L173.678 46.8931L166.568 31.359L166.185 48.4384L155.916 50.5564L142.787 21.6527Z" fill="#5C006A"/>
<defs>
<filter id="filter0_d" x="2.5686" y="66.5497" width="132.105" height="167.018" filterUnits="userSpaceOnUse" color-interpolation-filters="sRGB">
<feFlood flood-opacity="0" result="BackgroundImageFix"/>
<feColorMatrix in="SourceAlpha" type="matrix" values="0 0 0 0 0 0 0 0 0 0 0 0 0 0 0 0 0 0 127 0" result="hardAlpha"/>
<feOffset dy="2"/>
<feGaussianBlur stdDeviation="1.5"/>
<feColorMatrix type="matrix" values="0 0 0 0 0 0 0 0 0 0 0 0 0 0 0 0 0 0 0.4 0"/>
<feBlend mode="normal" in2="BackgroundImageFix" result="effect1_dropShadow"/>
<feBlend mode="normal" in="SourceGraphic" in2="effect1_dropShadow" result="shape"/>
</filter>
<filter id="filter1_d" x="90.5721" y="24.816" width="219.689" height="235.859" filterUnits="userSpaceOnUse" color-interpolation-filters="sRGB">
<feFlood flood-opacity="0" result="BackgroundImageFix"/>
<feColorMatrix in="SourceAlpha" type="matrix" values="0 0 0 0 0 0 0 0 0 0 0 0 0 0 0 0 0 0 127 0" result="hardAlpha"/>
<feOffset dy="2"/>
<feGaussianBlur stdDeviation="1.5"/>
<feColorMatrix type="matrix" values="0 0 0 0 0 0 0 0 0 0 0 0 0 0 0 0 0 0 0.4 0"/>
<feBlend mode="normal" in2="BackgroundImageFix" result="effect1_dropShadow"/>
<feBlend mode="normal" in="SourceGraphic" in2="effect1_dropShadow" result="shape"/>
</filter>
<filter id="filter2_d" x="7.88867" y="69.8624" width="123.465" height="158.393" filterUnits="userSpaceOnUse" color-interpolation-filters="sRGB">
<feFlood flood-opacity="0" result="BackgroundImageFix"/>
<feColorMatrix in="SourceAlpha" type="matrix" values="0 0 0 0 0 0 0 0 0 0 0 0 0 0 0 0 0 0 127 0" result="hardAlpha"/>
<feOffset dx="1" dy="1"/>
<feGaussianBlur stdDeviation="0.5"/>
<feColorMatrix type="matrix" values="0 0 0 0 0 0 0 0 0 0 0 0 0 0 0 0 0 0 0.25 0"/>
<feBlend mode="normal" in2="BackgroundImageFix" result="effect1_dropShadow"/>
<feBlend mode="normal" in="SourceGraphic" in2="effect1_dropShadow" result="shape"/>
</filter>
<filter id="filter3_d" x="95.8915" y="28.128" width="211.052" height="227.235" filterUnits="userSpaceOnUse" color-interpolation-filters="sRGB">
<feFlood flood-opacity="0" result="BackgroundImageFix"/>
<feColorMatrix in="SourceAlpha" type="matrix" values="0 0 0 0 0 0 0 0 0 0 0 0 0 0 0 0 0 0 127 0" result="hardAlpha"/>
<feOffset dx="1" dy="1"/>
<feGaussianBlur stdDeviation="0.5"/>
<feColorMatrix type="matrix" values="0 0 0 0 0 0 0 0 0 0 0 0 0 0 0 0 0 0 0.25 0"/>
<feBlend mode="normal" in2="BackgroundImageFix" result="effect1_dropShadow"/>
<feBlend mode="normal" in="SourceGraphic" in2="effect1_dropShadow" result="shape"/>
</filter>
</defs>
</svg>
